<svg version="1.1"
	 xmlns="http://www.w3.org/2000/svg" xmlns:xlink="http://www.w3.org/1999/xlink"
	 x="0px" y="0px" width="509.16px" height="167.07px" viewBox="0 0 509.16 167.07"
	 style="enable-background:new 0 0 509.16 167.07;" xml:space="preserve">
<style type="text/css">
	.st0{fill:none;}
	.st1{enable-background:new    ;}
	.st2{fill:#262626;}
	.st3{fill:#FE0000;}
	.st4{fill:#FFCC00;}
</style>
<defs>
</defs>
<polygon id="XMLID_10_" class="st0" points="509.14,59.29 0,60.12 0.02,0.83 509.16,0 "/>
<g class="st1">
	<path class="st2" d="M58.01,27.07c0,17.18-11.21,29.38-27.66,29.38c-16.08,0-27.97-11.56-27.97-27.53
		C2.39,12.94,14.06,1.3,30.23,1.3c13.76,0,25.02,8.61,27.24,20.81H42.31c-1.9-4.42-6.6-7.27-11.95-7.27
		c-7.86,0-13.16,5.69-13.16,14.07c0,8.3,5.21,13.99,13.16,13.99c5.52,0,10.25-2.67,11.9-6.72H29.22v-9.12L58.01,27.07z"/>
	<path class="st2" d="M99.54,42.58v12.54H65.32V2.63h33.59v12.5H79.72v7.73h17.24v11.86H79.72v7.86H99.54z"/>
	<path class="st2" d="M127.55,39.06h-5.24v16.06h-14.46V2.63h22.75c11.32,0,19.52,7.6,19.52,18.58c0,6.44-3.15,11.72-8.33,14.83
		l10.42,19.09h-16.14L127.55,39.06z M122.3,26.88h6.61c4.04,0,6.37-2.43,6.37-5.72c0-3.28-2.33-5.68-6.37-5.68h-6.61V26.88z"/>
	<path class="st2" d="M210.46,55.12l-4.1-30.23l-13.92,30.32h-4.27L174.25,24.9l-4.04,30.22h-14.66l7.94-52.5h14.44l12.36,28.57
		l12.44-28.57h14.44l7.87,52.5H210.46z"/>
	<path class="st2" d="M264.12,46.6h-18.61l-2.91,8.53h-15.5l20.62-52.5h14.14l21.07,52.5h-15.93L264.12,46.6z M254.78,19.01
		l-5.75,16.27h11.56L254.78,19.01z"/>
	<path class="st2" d="M334.82,2.63v52.5h-11.96l-20.86-28.49v28.49h-14.02V2.63h12.66l20.16,27.54V2.63H334.82z"/>
	<path class="st2" d="M344.99,2.63h14.65v52.5h-14.65V2.63z"/>
	<path class="st2" d="M408.03,41.66v13.47h-41.56v-3.01l19.45-36.02h-18.18V2.63h39.39v3.27l-19.35,35.76H408.03z"/>
	<path class="st2" d="M449.27,42.58v12.54h-34.23V2.63h33.59v12.5h-19.19v7.73h17.24v11.86h-17.24v7.86H449.27z"/>
	<path class="st2" d="M505.91,28.83c0,15.32-11.25,26.29-27.1,26.29h-21.25V2.63h21.25C494.71,2.63,505.91,13.49,505.91,28.83z
		 M491.08,28.83c0-7.79-5.18-12.96-12.96-12.96h-6.04v26.01h6.04C485.9,41.88,491.08,36.58,491.08,28.83z"/>
</g>
<rect id="XMLID_9_" x="94.64" y="68.31" class="st2" width="106.5" height="8.76"/>
<rect id="XMLID_8_" x="201.14" y="68.31" class="st3" width="106.5" height="8.76"/>
<rect id="XMLID_7_" x="307.64" y="68.31" class="st4" width="106.5" height="8.76"/>
<rect id="XMLID_1_" x="81.83" y="88.07" class="st0" width="345.94" height="79"/>
<g class="st1">
	<path class="st2" d="M105.89,93.94v3.12h6.3v4.73h-6.3v6.87h-5.45v-19.6h12.47v4.89H105.89z"/>
	<path class="st2" d="M125.36,109.15c-6.3,0-10.8-4.31-10.8-10.3s4.5-10.29,10.8-10.29c6.28,0,10.76,4.29,10.76,10.29
		C136.13,104.86,131.65,109.15,125.36,109.15L125.36,109.15z M130.5,98.85c0-3.07-2.16-5.27-5.14-5.27c-2.98,0-5.17,2.22-5.17,5.27
		c0,3.05,2.19,5.27,5.17,5.27C128.34,104.12,130.5,101.92,130.5,98.85z"/>
	<path class="st2" d="M146.24,102.65h-1.96v6h-5.4v-19.6h8.5c4.23,0,7.29,2.84,7.29,6.94c0,2.4-1.17,4.38-3.11,5.54l3.89,7.13h-6.03
		L146.24,102.65z M144.28,98.11h2.47c1.51,0,2.38-0.91,2.38-2.13c0-1.22-0.87-2.12-2.38-2.12h-2.47V98.11z"/>
	<path class="st2" d="M190.7,89.05l-6.04,19.6h-4.75l-3.76-9.46l-3.69,9.46h-4.75l-6.14-19.6h5.8l3.18,11.3l4.67-11.2h1.87
		l4.75,11.21l3.12-11.3H190.7z"/>
	<path class="st2" d="M201.91,109.15c-6.3,0-10.8-4.31-10.8-10.3s4.5-10.29,10.8-10.29c6.28,0,10.76,4.29,10.76,10.29
		C212.68,104.86,208.2,109.15,201.91,109.15L201.91,109.15z M207.05,98.85c0-3.07-2.16-5.27-5.14-5.27c-2.98,0-5.17,2.22-5.17,5.27
		c0,3.05,2.19,5.27,5.17,5.27C204.89,104.12,207.05,101.92,207.05,98.85z"/>
	<path class="st2" d="M225.21,109.15c-6.3,0-10.8-4.31-10.8-10.3s4.5-10.29,10.8-10.29c6.28,0,10.76,4.29,10.76,10.29
		C235.97,104.86,231.49,109.15,225.21,109.15L225.21,109.15z M230.35,98.85c0-3.07-2.16-5.27-5.14-5.27c-2.98,0-5.17,2.22-5.17,5.27
		c0,3.05,2.19,5.27,5.17,5.27C228.19,104.12,230.35,101.92,230.35,98.85z"/>
	<path class="st2" d="M248.13,109.15c-5.97,0-10.42-4.42-10.42-10.28c0-5.9,4.46-10.31,10.42-10.31c5.14,0,9.12,3.39,9.91,8.36
		h-5.47c-0.67-2.01-2.37-3.31-4.43-3.31c-2.78,0-4.81,2.23-4.81,5.27c0,3.02,2.04,5.22,4.81,5.22c2.17,0,3.88-1.42,4.43-3.59h5.52
		C257.35,105.65,253.35,109.15,248.13,109.15L248.13,109.15z"/>
	<path class="st2" d="M270.46,109.15c-6.3,0-10.8-4.31-10.8-10.3s4.5-10.29,10.8-10.29c6.28,0,10.76,4.29,10.76,10.29
		C281.22,104.86,276.74,109.15,270.46,109.15L270.46,109.15z M275.6,98.85c0-3.07-2.16-5.27-5.14-5.27c-2.98,0-5.17,2.22-5.17,5.27
		c0,3.05,2.19,5.27,5.17,5.27C273.44,104.12,275.6,101.92,275.6,98.85z"/>
	<path class="st2" d="M303.16,108.65l-1.53-11.29l-5.2,11.32h-1.6l-5.2-11.32l-1.51,11.28h-5.47l2.96-19.6h5.39l4.62,10.67
		l4.65-10.67h5.39l2.94,19.6H303.16z"/>
	<path class="st2" d="M330.66,108.65l-1.53-11.29l-5.2,11.32h-1.6l-5.2-11.32l-1.51,11.28h-5.47l2.96-19.6h5.39l4.62,10.67
		l4.65-10.67h5.39l2.94,19.6H330.66z"/>
	<path class="st2" d="M351.55,103.97v4.68h-12.78v-19.6h12.54v4.67h-7.17v2.89h6.44v4.43h-6.44v2.93H351.55z"/>
	<path class="st2" d="M362.01,102.65h-1.96v6h-5.4v-19.6h8.5c4.23,0,7.29,2.84,7.29,6.94c0,2.4-1.17,4.38-3.11,5.54l3.89,7.13h-6.03
		L362.01,102.65z M360.05,98.11h2.47c1.51,0,2.38-0.91,2.38-2.13c0-1.22-0.87-2.12-2.38-2.12h-2.47V98.11z"/>
	<path class="st2" d="M382.81,109.15c-5.97,0-10.42-4.42-10.42-10.28c0-5.9,4.46-10.31,10.42-10.31c5.14,0,9.12,3.39,9.91,8.36
		h-5.47c-0.67-2.01-2.37-3.31-4.43-3.31c-2.78,0-4.81,2.23-4.81,5.27c0,3.02,2.04,5.22,4.81,5.22c2.17,0,3.88-1.42,4.43-3.59h5.52
		C392.03,105.65,388.03,109.15,382.81,109.15L382.81,109.15z"/>
	<path class="st2" d="M408.14,103.97v4.68h-12.78v-19.6h12.54v4.67h-7.17v2.89h6.44v4.43h-6.44v2.93H408.14z"/>
</g>
</svg>
