<svg version="1.1"
	 xmlns="http://www.w3.org/2000/svg"
	 x="0px" y="0px" width="512px" height="512px" viewBox="0 0 512 512" style="enable-background:new 0 0 512 512;">
<defs>
</defs>
<circle id="BG_2_" class="st0" cx="256" cy="256" r="256" style="fill: #9a4dff;"/>
<path id="XMLID_31_" class="st1" style="fill: #FFFFFF;" d="M251,245.89V297h72.54c-9.24,23-35.75,37.6-66.66,37.6c-44.52,0-73.72-31.85-73.72-78.34
	c0-46.98,29.68-78.89,73.72-78.89c29.98,0,56.29,15.63,66.93,40.63h84.88c-5.2-28-19.26-53.58-39.49-73.05
	c-28.14-27.11-68.22-43.4-113.05-43.4c-45.09,0-83.91,16.18-111.54,43.44c-27.88,27.5-44.36,66.33-44.36,111.25
	c0,89.45,66.54,154.19,156.62,154.19c92.07,0,155.12-68.35,155.12-164.55L251,245.89z"/>
<g id="XMLID_23_">
	<clipPath id="XMLID_33_">
		<path id="XMLID_24_" d="M251,245.89V297h72.54c-9.24,23-35.75,37.6-66.66,37.6c-44.52,0-73.72-31.85-73.72-78.34
			c0-46.98,29.68-78.89,73.72-78.89c29.98,0,56.29,15.63,66.93,40.63h84.88c-5.2-28-19.26-53.58-39.49-73.05
			c-28.14-27.11-68.22-43.4-113.05-43.4c-45.09,0-83.91,16.18-111.54,43.44c-27.88,27.5-44.36,66.33-44.36,111.25
			c0,89.45,66.54,154.19,156.62,154.19c92.07,0,155.12-68.35,155.12-164.55L251,245.89z"/>
	</clipPath>
	<g id="XMLID_27_" class="st2" clip-path="url(#XMLID_33_)">
		<rect id="XMLID_30_" style="fill:#22272C;" x="86.67" y="98.63" class="st3" width="337.22" height="41.79"/>
		<rect id="XMLID_29_" style="fill:#FE0000;" x="86.67" y="140.06" class="st4" width="337.22" height="38.88"/>
		<rect id="XMLID_28_" style="fill:#FFCC00;" x="86.67" y="178.65" class="st5" width="337.22" height="39.5"/>
	</g>
</g>
</svg>
