<svg viewBox="0 0 1915 1049" xmlns="http://www.w3.org/2000/svg"><g fill="none" fill-rule="evenodd"><rect fill="#FFF" width="1915" height="993" rx="179"/><path d="M185 357h228v586H185c-74.56 0-135-60.44-135-135V492c0-74.56 60.44-135 135-135z" fill="#038141"/><path fill="#FECB02" d="M776 357h363v586H776z"/><path fill="#EE8100" d="M1139 357h363v586h-363z"/><path d="M1502 357h228c74.56 0 135 60.44 135 135v316c0 74.56-60.44 135-135 135h-228V357z" fill="#E63E11"/><path d="M1215 783V517h99c22.3 0 41.55 3.5 58 10 16.53 7.48 30.27 16.97 41 29a107.14 107.14 0 0125 42c6.13 16.28 9 33.4 9 52 0 19.86-3.12 38.21-9 55a137.43 137.43 0 01-27 42c-11.85 11.15-25.84 20.14-42 27-16.57 5.88-34.69 9-55 9h-99zm169-133c0-12.1-1.63-22.71-5-32-2.88-9.93-7.38-18.3-13-25-6.37-7.27-13.75-12.64-23-16-8.25-4.13-18.13-6-29-6h-38v158h38c11.12 0 21.12-2 30-6a70.63 70.63 0 0022-16c5.62-7.7 10.12-16.06 13-26 3.38-9.28 5-19.9 5-31zM866 647.37c0-16 3-31.87 8.98-47.62 5.98-16 14.7-30.25 26.18-42.75 11.47-12.5 25.43-22.63 41.9-30.38 16.45-7.75 35.15-11.62 56.1-11.62 24.93 0 46.5 5.38 64.7 16.13 18.46 10.75 32.17 24.74 41.15 42l-47.13 33c-3-7-6.86-12.76-11.6-17.26a53.54 53.54 0 00-14.96-11.25c-5.48-3-11.1-5-16.83-6a78.91 78.91 0 00-16.83-1.87c-11.72 0-21.94 2.38-30.67 7.13a67.56 67.56 0 00-21.7 18.37c-5.73 7.5-9.97 16-12.71 25.5a103.6 103.6 0 00-4.12 28.87c0 10.5 1.62 20.63 4.87 30.38a83.1 83.1 0 0013.84 25.87 72.92 72.92 0 0022.06 18c8.73 4.26 18.46 6.38 29.18 6.38 5.48 0 11.1-.62 16.83-1.87a75.56 75.56 0 0016.83-6.38c5.49-3 10.47-6.75 14.96-11.25a54.88 54.88 0 0010.85-17.25l50.12 29.62a77.05 77.05 0 01-17.95 26.26 106.3 106.3 0 01-26.93 19.5 144.9 144.9 0 01-32.55 12 144.1 144.1 0 01-33.66 4.12c-19.2 0-36.9-3.88-53.11-11.63-15.96-8-29.8-18.5-41.52-31.5a148.25 148.25 0 01-26.93-44.25 141.16 141.16 0 01-9.35-50.25zM1777 729.05V783h-187V517h183.63v53.95h-122.17v51.7h104.93v49.83h-104.93v56.57H1777zM173 517h55l97 266h-63l-20-60h-83l-20 60H76l97-266zm59 164l-31-94-32 94h63z" fill="#FFF" fill-rule="nonzero" opacity=".45"/><g transform="translate(348 252)"><rect fill="#FFF" width="493" height="797" rx="226"/><rect fill="#85BB2F" x="30" y="30" width="432" height="736" rx="195"/><path d="M389.77 482.6c0 15.14-2.87 28.3-8.6 39.5a81.67 81.67 0 01-23.55 28.13c-9.96 7.24-21.58 12.83-34.86 16.78a159.48 159.48 0 01-42.1 5.43H124V222h178.84c11.16 0 21.28 2.63 30.33 7.9a76.08 76.08 0 0123.1 20.73c6.33 8.22 11.16 17.77 14.48 28.62a99.46 99.46 0 015.43 32.58 99.7 99.7 0 01-11.77 47.38c-7.54 14.81-19.01 26-34.4 33.57 18.4 5.92 32.9 16.45 43.46 31.59 10.86 15.13 16.3 34.55 16.3 58.24zm-75.61-16.28c0-10.86-2.87-20.07-8.6-27.64-5.74-7.57-12.99-11.35-21.74-11.35h-85.57v76.5h82.4c9.66 0 17.66-3.45 24-10.36 6.34-6.91 9.5-15.96 9.5-27.15zM198.26 291.1v72.56h72.88c8.15 0 15.4-2.97 21.74-8.89 6.33-5.92 9.5-15.13 9.5-27.64 0-11.52-2.86-20.4-8.6-26.65-5.43-6.25-12.07-9.38-19.92-9.38h-75.6z" fill="#FFF" fill-rule="nonzero"/></g><g fill="#7D7D7D" fill-rule="nonzero"><path d="M124.06 164.37V241H93V107h24.24l62.7 78.7V107H211v134h-25l-61.94-76.63zM294.5 214.47c5.29 0 9.76-1.07 13.41-3.2a27.16 27.16 0 008.88-8.86 36.04 36.04 0 004.72-12.45c1-4.78 1.51-9.62 1.51-14.52V107H354v68.44c0 9.3-1.2 17.98-3.59 26.02a57.88 57.88 0 01-10.77 21.12c-4.78 6.03-10.95 10.81-18.5 14.33-7.44 3.4-16.31 5.09-26.64 5.09-10.7 0-19.83-1.82-27.39-5.47-7.55-3.64-13.72-8.48-18.51-14.52a63.45 63.45 0 01-10.39-21.3 97.85 97.85 0 01-3.21-25.27V107h30.98v68.44c0 5.16.5 10.06 1.5 14.7 1.02 4.66 2.65 8.8 4.92 12.45a26.03 26.03 0 008.69 8.68c3.65 2.13 8.12 3.2 13.41 3.2zM480 134.18h-40.88V241h-31.05V134.18H367V107h113zM495 241V107h60.54c6.3 0 12.1 1.32 17.4 3.96a46.11 46.11 0 0114 10.38 47.06 47.06 0 019.09 14.54 42.1 42.1 0 013.4 16.42c0 4.15-.5 8.17-1.51 12.07-1.01 3.78-2.46 7.37-4.35 10.76a40.73 40.73 0 01-16.08 16.04L607 241h-35l-25.73-43.22h-20.24V241H495zm31-70h28.5c3.68 0 6.85-1.72 9.5-5.15 2.67-3.56 4-8.07 4-13.54 0-5.6-1.52-10.05-4.56-13.35-3.04-3.3-6.34-4.96-9.88-4.96H526v37zM622 241V107h31v134h-31zM677 203v-27h58v27zM838.35 146.5c-.38-.51-1.71-1.46-3.99-2.84a82.87 82.87 0 00-19.74-8.33 44.82 44.82 0 00-12.15-1.7c-11.13 0-16.7 3.72-16.7 11.16 0 2.27.57 4.16 1.71 5.68a18.53 18.53 0 005.31 4.16c2.4 1.14 5.38 2.2 8.93 3.22 3.54 1 7.65 2.14 12.33 3.4a148.35 148.35 0 0117.46 5.87 42.82 42.82 0 0113.1 7.76 29.22 29.22 0 018.35 11.16c2.03 4.42 3.04 9.72 3.04 15.9 0 7.57-1.46 14-4.37 19.3a36.15 36.15 0 01-11.2 12.68 50.44 50.44 0 01-16.13 7 84.1 84.1 0 01-18.79 2.08c-4.93 0-10-.38-15.18-1.14a120.06 120.06 0 01-15.19-3.21 140.45 140.45 0 01-14.42-5.3 82.05 82.05 0 01-12.72-7l13.67-27.06c.5.63 2.15 1.83 4.93 3.6a76.07 76.07 0 0010.25 5.3c4.18 1.76 8.8 3.34 13.86 4.72a57.9 57.9 0 0015.37 2.08c11.01 0 16.51-3.34 16.51-10.02 0-2.53-.82-4.6-2.46-6.25a21.95 21.95 0 00-6.84-4.35 65.56 65.56 0 00-10.44-3.79c-3.92-1.13-8.22-2.4-12.9-3.78-6.2-1.9-11.58-3.91-16.14-6.06a46.14 46.14 0 01-11.38-7.75 29.58 29.58 0 01-6.65-10.03c-1.39-3.79-2.09-8.2-2.09-13.25 0-7.06 1.33-13.3 3.99-18.73a39.52 39.52 0 0110.82-13.63 46.38 46.38 0 0115.75-8.51 64.08 64.08 0 0119.17-2.84c4.69 0 9.3.44 13.86 1.32 4.55.89 8.92 2.02 13.1 3.41a88.49 88.49 0 0111.57 4.73c3.67 1.77 7.03 3.53 10.06 5.3l-13.66 25.73zM867 172.68c0-8.06 1.5-16.06 4.53-24a65.46 65.46 0 0113.2-21.52 67.05 67.05 0 0121.11-15.3c8.3-3.9 17.73-5.86 28.29-5.86 12.57 0 23.44 2.7 32.62 8.12 9.3 5.42 16.22 12.47 20.74 21.16l-23.76 16.62a25.74 25.74 0 00-5.84-8.69 26.99 26.99 0 00-7.55-5.67 27.46 27.46 0 00-8.48-3.02c-2.9-.63-5.72-.94-8.49-.94-5.9 0-11.06 1.2-15.46 3.59a34.05 34.05 0 00-10.93 9.25 38.5 38.5 0 00-6.42 12.85 52.14 52.14 0 00-2.07 14.54c0 5.29.82 10.39 2.45 15.3a41.85 41.85 0 006.98 13.03 36.75 36.75 0 0011.12 9.07c4.4 2.14 9.3 3.21 14.71 3.21 2.77 0 5.6-.31 8.49-.94a38.11 38.11 0 008.48-3.21 32.91 32.91 0 007.54-5.67 27.64 27.64 0 005.47-8.69L989 210.83a38.81 38.81 0 01-9.05 13.23 53.59 53.59 0 01-13.58 9.82 73.09 73.09 0 01-16.4 6.04A72.7 72.7 0 01933 242a61.3 61.3 0 01-26.78-5.86 70.34 70.34 0 01-20.93-15.86 74.66 74.66 0 01-13.58-22.3 71.05 71.05 0 01-4.71-25.3zM1061.81 242c-10 0-19.1-1.95-27.33-5.86a68.1 68.1 0 01-21.07-15.3 72.74 72.74 0 01-13.66-21.9 69.64 69.64 0 01-4.75-25.32c0-8.81 1.64-17.31 4.93-25.5a67.58 67.58 0 0135.5-36.46 63.8 63.8 0 0126.95-5.66c10 0 19.1 1.95 27.33 5.86a66.64 66.64 0 0121.07 15.48 69.8 69.8 0 0113.47 21.92 68.65 68.65 0 014.75 24.93c0 8.81-1.7 17.31-5.12 25.5a68.57 68.57 0 01-13.86 21.72 69.43 69.43 0 01-21.26 14.92 63.79 63.79 0 01-26.95 5.67zM1027 174.5c0 5.17.76 10.22 2.29 15.14a41.36 41.36 0 006.68 12.87 34.3 34.3 0 0011.26 9.08c4.45 2.27 9.54 3.41 15.27 3.41 5.98 0 11.2-1.2 15.65-3.6a34.38 34.38 0 0011.07-9.27 40.6 40.6 0 006.49-13.06 50.18 50.18 0 000-29.9 36.9 36.9 0 00-6.87-12.87 32.26 32.26 0 00-11.26-8.9c-4.33-2.26-9.35-3.4-15.08-3.4-5.98 0-11.2 1.2-15.65 3.6a34.94 34.94 0 00-11.07 9.08 40.99 40.99 0 00-6.68 13.06 52.4 52.4 0 00-2.1 14.76zM1147 241V107h60.54c6.3 0 12.1 1.32 17.4 3.96a46.11 46.11 0 0114 10.38 47.06 47.06 0 019.09 14.54 42.1 42.1 0 013.4 16.42c0 4.15-.5 8.17-1.51 12.07-1.01 3.78-2.46 7.37-4.35 10.76a40.73 40.73 0 01-16.08 16.04L1259 241h-35l-25.73-43.22h-20.24V241H1147zm31-70h28.5c3.68 0 6.85-1.72 9.5-5.15 2.67-3.56 4-8.07 4-13.54 0-5.6-1.52-10.05-4.56-13.35-3.04-3.3-6.34-4.96-9.88-4.96H1178v37zM1367 213.82V241h-94V107h92.3v27.18h-61.4v26.04h52.74v25.1h-52.75v28.5z"/></g></g></svg>
