<?xml version="1.0" encoding="utf-8"?>
<!-- Generator: Adobe Illustrator 16.0.0, SVG Export Plug-In . SVG Version: 6.00 Build 0)  -->
<!DOCTYPE svg PUBLIC "-//W3C//DTD SVG 1.1//EN" "http://www.w3.org/Graphics/SVG/1.1/DTD/svg11.dtd">
<svg version="1.1" id="Layer_1" xmlns="http://www.w3.org/2000/svg" xmlns:xlink="http://www.w3.org/1999/xlink" x="0px" y="0px"
	 width="398.09px" height="117.176px" viewBox="0 0 398.09 117.176" enable-background="new 0 0 398.09 117.176"
	 xml:space="preserve">
<rect y="23.16" fill="none" width="422.223" height="94.018"/>
<text transform="matrix(1 0 0 1 0 76.6353)" fill="#262626" font-family="'BreeSerif-Regular'" font-size="75">ger</text>
<text transform="matrix(1 0 0 1 111.748 76.6353)" fill="#BB2525" font-family="'BreeSerif-Regular'" font-size="75">man</text>
<text transform="matrix(1 0 0 1 264.2207 76.6353)" fill="#B3AA19" font-family="'BreeSerif-Regular'" font-size="75">ized</text>
<circle fill="none" stroke="#262626" stroke-width="1.5" stroke-miterlimit="10" cx="288.382" cy="102.513" r="13.46"/>
<g>
	<g>
		<path fill="#262626" d="M285.59,95.067v2.096l-0.639,0.082c-0.688,0.057-0.931,0.59-0.709,1.262l4.385,11.561h0.154l4.045-12.398
			l-2.236-0.395v-2.207h6.129c-2.044-2-5.007-3.707-8.308-3.707c-3.299,0-6.264,1.707-8.31,3.707H285.59z"/>
		<path fill="#262626" d="M298.302,97.172l-0.895,0.072c-0.563,0.057-0.751,0.281-0.972,0.84l-5.831,15.223
			c5.117-1.021,8.976-5.533,8.976-10.949C299.58,100.485,299.115,98.723,298.302,97.172z"/>
		<path fill="#262626" d="M280.095,97.358l-1.629-0.078c-0.779,1.523-1.222,3.248-1.222,5.078c0,5.48,3.951,10.039,9.161,10.982
			L280.095,97.358z"/>
	</g>
</g>
<rect x="305.508" y="94.686" fill="none" width="96.751" height="21.223"/>
<text transform="matrix(1 0 0 1 305.5078 111.3755)" fill="#262626" font-family="'BreeSerif-Regular'" font-size="23.4073">endidero</text>
<g>
	<path fill="#9B5C8F" d="M4.783,0h41.052c2.598,0,4.7,2.104,4.7,4.701v15.67c0,2.598-2.103,4.701-4.7,4.701H31.113l2.021,4.949
		l-8.887-4.949H4.805c-2.598,0-4.701-2.104-4.701-4.701V4.701C0.082,2.124,2.186,0,4.783,0z"/>
	<path fill="#FFFFFF" d="M2.619,4.268C2.908,3.876,3.34,3.67,3.918,3.628C4.97,3.545,5.566,4.041,5.711,5.111
		C6.35,9.422,7.052,13.07,7.794,16.061l4.515-8.599c0.412-0.783,0.928-1.196,1.547-1.237c0.906-0.062,1.463,0.516,1.689,1.732
		c0.516,2.742,1.175,5.072,1.959,7.051c0.536-5.236,1.443-9.01,2.721-11.34c0.309-0.578,0.764-0.866,1.36-0.907
		c0.476-0.042,0.907,0.103,1.299,0.412s0.599,0.701,0.64,1.177c0.021,0.37-0.041,0.68-0.207,0.988c-0.804,1.484-1.463,3.979-2,7.443
		c-0.516,3.361-0.701,5.979-0.576,7.854c0.041,0.517-0.043,0.97-0.248,1.361c-0.248,0.452-0.618,0.7-1.094,0.741
		c-0.535,0.043-1.092-0.207-1.627-0.762c-1.918-1.959-3.443-4.888-4.558-8.785c-1.34,2.64-2.33,4.619-2.969,5.938
		c-1.218,2.33-2.248,3.524-3.113,3.588c-0.558,0.041-1.03-0.435-1.442-1.423c-1.053-2.701-2.187-7.917-3.402-15.648
		C2.227,5.113,2.33,4.639,2.619,4.268z"/>
	<path fill="#FFFFFF" d="M46.947,7.505c-0.741-1.299-1.834-2.083-3.299-2.392c-0.392-0.082-0.763-0.125-1.113-0.125
		c-1.979,0-3.588,1.031-4.846,3.094c-1.072,1.752-1.607,3.689-1.607,5.812c0,1.588,0.33,2.949,0.99,4.084
		c0.742,1.299,1.834,2.082,3.299,2.392c0.392,0.083,0.763,0.124,1.113,0.124c2,0,3.608-1.031,4.846-3.094
		c1.072-1.772,1.609-3.711,1.609-5.834C47.938,9.959,47.607,8.619,46.947,7.505L46.947,7.505z M44.35,13.216
		c-0.289,1.36-0.804,2.371-1.566,3.052c-0.598,0.535-1.154,0.762-1.67,0.659c-0.496-0.103-0.907-0.536-1.217-1.34
		c-0.248-0.64-0.371-1.278-0.371-1.877c0-0.515,0.043-1.03,0.145-1.505c0.186-0.846,0.536-1.67,1.093-2.454
		c0.681-1.011,1.402-1.422,2.146-1.278c0.494,0.104,0.906,0.536,1.216,1.34c0.248,0.639,0.37,1.278,0.37,1.877
		C44.494,12.227,44.433,12.742,44.35,13.216L44.35,13.216z"/>
	<path fill="#FFFFFF" d="M34.021,7.505c-0.744-1.299-1.856-2.083-3.3-2.392c-0.392-0.082-0.763-0.125-1.112-0.125
		c-1.979,0-3.588,1.031-4.846,3.094c-1.072,1.752-1.607,3.689-1.607,5.812c0,1.588,0.33,2.949,0.988,4.084
		c0.743,1.299,1.836,2.082,3.299,2.392c0.393,0.083,0.764,0.124,1.114,0.124c2,0,3.608-1.031,4.845-3.094
		c1.072-1.772,1.608-3.711,1.608-5.834C35.01,9.959,34.68,8.619,34.021,7.505L34.021,7.505z M31.422,13.216
		c-0.288,1.36-0.805,2.371-1.566,3.052c-0.599,0.535-1.154,0.762-1.67,0.659c-0.496-0.103-0.908-0.536-1.217-1.34
		c-0.248-0.64-0.372-1.278-0.372-1.877c0-0.515,0.042-1.03,0.146-1.505c0.186-0.846,0.535-1.67,1.093-2.454
		c0.68-1.011,1.401-1.422,2.144-1.278c0.495,0.104,0.907,0.536,1.217,1.34c0.248,0.639,0.371,1.278,0.371,1.877
		C31.566,12.227,31.525,12.742,31.422,13.216L31.422,13.216z"/>
	<g>
		<g>
			<path d="M55.752,7.318c-1.383,1.361-2.062,3.094-2.062,5.197c0,2.248,0.68,4.082,2.043,5.463c1.36,1.381,3.133,2.082,5.34,2.082
				c0.639,0,1.36-0.103,2.145-0.33v-3.34c-0.723,0.207-1.34,0.309-1.876,0.309c-1.093,0-1.958-0.37-2.618-1.092
				c-0.66-0.742-0.99-1.731-0.99-2.99c0-1.174,0.33-2.145,0.969-2.887c0.66-0.763,1.465-1.133,2.455-1.133
				c0.639,0,1.319,0.102,2.062,0.309v-3.34c-0.681-0.187-1.442-0.269-2.248-0.269C58.865,5.277,57.133,5.959,55.752,7.318z
				 M70.061,5.277c-1.896,0-3.381,0.64-4.453,1.897c-1.072,1.257-1.588,3.03-1.588,5.298c0,2.454,0.535,4.33,1.588,5.629
				c1.051,1.299,2.598,1.959,4.618,1.959c1.958,0,3.464-0.66,4.515-1.959c1.052-1.3,1.589-3.134,1.589-5.484
				c0-2.352-0.537-4.165-1.609-5.443C73.628,5.917,72.082,5.277,70.061,5.277z M71.689,16c-0.371,0.576-0.928,0.865-1.629,0.865
				c-0.66,0-1.154-0.289-1.505-0.865c-0.351-0.577-0.515-1.732-0.515-3.484c0-2.701,0.681-4.041,2.062-4.041
				c1.443,0,2.186,1.36,2.186,4.103C72.267,14.268,72.061,15.422,71.689,16z M86.515,5.67l-0.743,3.154
				c-0.186,0.804-0.371,1.629-0.535,2.474l-0.412,2.187c-0.393-2.187-0.928-4.783-1.609-7.814h-4.783l-1.794,14.041h3.587
				l0.971-9.67l2.453,9.67h2.557l2.351-9.648l1.011,9.648h3.752L91.422,5.67H86.515z M103.689,5.67l-0.742,3.154
				c-0.186,0.804-0.371,1.629-0.535,2.474l-0.413,2.187c-0.392-2.187-0.929-4.783-1.608-7.814h-4.783l-1.793,14.041h3.588
				l0.969-9.67l2.453,9.67h2.558l2.33-9.648l1.01,9.648h3.752L108.578,5.67H103.689z M115.359,14.165h3.361v-2.907h-3.361V8.682
				h3.877v-2.99h-7.67v14.041h7.689v-2.99h-3.896V14.165z M129.936,11.938c0.394-0.639,0.6-1.299,0.6-1.979
				c0-1.32-0.517-2.371-1.546-3.135c-1.031-0.762-2.454-1.153-4.229-1.153h-4.412v14.041h3.793V13.32h0.062l3.071,6.392h4
				l-3.03-6.33C128.967,13.051,129.545,12.576,129.936,11.938z M124.122,11.712V8.371c0.907,0.021,1.547,0.166,1.938,0.453
				c0.394,0.289,0.577,0.742,0.577,1.402C126.638,11.195,125.792,11.691,124.122,11.712z M132.761,7.318
				c-1.381,1.361-2.061,3.094-2.061,5.197c0,2.248,0.68,4.082,2.041,5.463c1.359,1.381,3.134,2.082,5.34,2.082
				c0.639,0,1.359-0.103,2.144-0.33v-3.34c-0.721,0.207-1.34,0.309-1.876,0.309c-1.093,0-1.958-0.37-2.618-1.092
				c-0.66-0.742-0.988-1.731-0.988-2.99c0-1.174,0.328-2.145,0.969-2.887c0.66-0.763,1.464-1.133,2.454-1.133
				c0.639,0,1.318,0.102,2.062,0.309v-3.34c-0.68-0.187-1.44-0.269-2.247-0.269C135.895,5.277,134.143,5.959,132.761,7.318z
				 M145.07,16.699v-2.555h3.359v-2.908h-3.359V8.658h3.896V5.67h-7.67v14.041h7.691v-2.99h-3.917V16.699L145.07,16.699z"/>
		</g>
	</g>
</g>
</svg>
