<?xml version="1.0" encoding="utf-8"?>
<!-- Generator: Adobe Illustrator 19.0.0, SVG Export Plug-In . SVG Version: 6.00 Build 0)  -->
<svg version="1.1" id="Ebene_1" xmlns="http://www.w3.org/2000/svg" xmlns:xlink="http://www.w3.org/1999/xlink" x="0px" y="0px"
	 viewBox="0 196.2 514 122" style="enable-background:new 0 196.2 514 122;" xml:space="preserve">
<style type="text/css">
	.st0{fill:#262626;}
	.st1{fill:#FE0000;}
	.st2{fill:#FFCC00;}
</style>
<g>
	<path class="st0" d="M61.4,262.2c0,17.2-11.2,29.4-27.7,29.4c-16.1,0-28-11.6-28-27.5c0-16,11.7-27.6,27.8-27.6
		c13.8,0,25,8.6,27.2,20.8H45.7c-1.9-4.4-6.6-7.3-12-7.3c-7.9,0-13.2,5.7-13.2,14.1c0,8.3,5.2,14,13.2,14c5.5,0,10.3-2.7,11.9-6.7
		h-13v-9.1L61.4,262.2z"/>
	<path class="st0" d="M103,277.7v12.5H68.7v-52.5h33.6v12.5H83.1v7.7h17.2v11.9H83.1v7.9H103z"/>
	<path class="st0" d="M131,274.2h-5.2v16.1h-14.5v-52.5H134c11.3,0,19.5,7.6,19.5,18.6c0,6.4-3.1,11.7-8.3,14.8l10.4,19.1h-16.1
		L131,274.2z M125.7,262h6.6c4,0,6.4-2.4,6.4-5.7c0-3.3-2.3-5.7-6.4-5.7h-6.6V262z"/>
	<path class="st0" d="M213.9,290.3l-4.1-30.2l-13.9,30.3h-4.3L177.7,260l-4,30.2H159l7.9-52.5h14.4l12.4,28.6l12.4-28.6h14.4
		l7.9,52.5H213.9z"/>
	<path class="st0" d="M267.5,281.7h-18.6l-2.9,8.5h-15.5l20.6-52.5h14.1l21.1,52.5h-15.9L267.5,281.7z M258.2,254.1l-5.8,16.3H264
		L258.2,254.1z"/>
	<path class="st0" d="M338.2,237.8v52.5h-12l-20.9-28.5v28.5h-14v-52.5h12.7l20.2,27.5v-27.5H338.2z"/>
	<path class="st0" d="M348.4,237.8h14.7v52.5h-14.7V237.8z"/>
	<path class="st0" d="M411.5,276.8v13.5h-41.6v-3l19.5-36h-18.2v-13.5h39.4v3.3l-19.4,35.8H411.5z"/>
	<path class="st0" d="M452.7,277.7v12.5h-34.2v-52.5h33.6v12.5h-19.2v7.7h17.2v11.9h-17.2v7.9H452.7z"/>
	<path class="st0" d="M509.3,264c0,15.3-11.2,26.3-27.1,26.3H461v-52.5h21.2C498.1,237.8,509.3,248.6,509.3,264z M494.5,264
		c0-7.8-5.2-13-13-13h-6v26h6C489.3,277,494.5,271.7,494.5,264z"/>
</g>
<rect id="XMLID_5_" x="98.1" y="301.4" class="st0" width="106.5" height="8.8"/>
<rect id="XMLID_4_" x="204.6" y="301.4" class="st1" width="106.5" height="8.8"/>
<rect id="XMLID_3_" x="311.1" y="301.4" class="st2" width="106.5" height="8.8"/>
<g>
	<path class="st0" d="M156.5,206.3l-6.5,21H145l-4-10.1l-4,10.1h-5.1l-6.6-21h6.2l3.4,12.1l5-12h2l5.1,12l3.3-12.1H156.5z"/>
	<path class="st0" d="M168.5,227.8c-6.8,0-11.6-4.6-11.6-11c0-6.4,4.8-11,11.6-11c6.7,0,11.5,4.6,11.5,11
		C180.1,223.2,175.3,227.8,168.5,227.8L168.5,227.8z M168.5,222.4c3.2,0,5.5-2.4,5.5-5.6c0-3.3-2.3-5.6-5.5-5.6s-5.5,2.4-5.5,5.6
		S165.3,222.4,168.5,222.4L168.5,222.4z"/>
	<path class="st0" d="M193.5,227.8c-6.8,0-11.6-4.6-11.6-11c0-6.4,4.8-11,11.6-11c6.7,0,11.5,4.6,11.5,11
		C205,223.2,200.2,227.8,193.5,227.8L193.5,227.8z M193.5,222.4c3.2,0,5.5-2.4,5.5-5.6c0-3.3-2.3-5.6-5.5-5.6s-5.5,2.4-5.5,5.6
		S190.3,222.4,193.5,222.4L193.5,222.4z"/>
	<path class="st0" d="M218.1,227.8c-6.4,0-11.2-4.7-11.2-11c0-6.3,4.8-11,11.2-11c5.5,0,9.8,3.6,10.6,9h-5.9
		c-0.7-2.2-2.5-3.6-4.7-3.6c-3,0-5.2,2.4-5.2,5.6c0,3.2,2.2,5.6,5.2,5.6c2.3,0,4.2-1.5,4.8-3.9h5.9
		C227.9,224,223.7,227.8,218.1,227.8L218.1,227.8z"/>
	<path class="st0" d="M242,227.8c-6.8,0-11.6-4.6-11.6-11c0-6.4,4.8-11,11.6-11c6.7,0,11.5,4.6,11.5,11
		C253.5,223.2,248.7,227.8,242,227.8L242,227.8z M242,222.4c3.2,0,5.5-2.4,5.5-5.6c0-3.3-2.3-5.6-5.5-5.6s-5.5,2.4-5.5,5.6
		S238.8,222.4,242,222.4L242,222.4z"/>
	<path class="st0" d="M277,227.3l-1.6-12.1l-5.6,12.1h-1.7l-5.6-12.1l-1.6,12.1h-5.9l3.2-21h5.8l4.9,11.4l5-11.4h5.8l3.1,21H277z"/>
	<path class="st0" d="M306.5,227.3l-1.6-12.1l-5.6,12.1h-1.7l-5.6-12.1l-1.6,12.1h-5.9l3.2-21h5.8l4.9,11.4l5-11.4h5.8l3.1,21H306.5
		z"/>
	<path class="st0" d="M328.9,222.2v5h-13.7v-21h13.4v5h-7.7v3.1h6.9v4.7h-6.9v3.1H328.9z"/>
	<path class="st0" d="M340.1,220.8H338v6.4h-5.8v-21h9.1c4.5,0,7.8,3,7.8,7.4c0,2.6-1.3,4.7-3.3,5.9l4.2,7.6h-6.5L340.1,220.8z
		 M338,216h2.6c1.6,0,2.5-1,2.5-2.3c0-1.3-0.9-2.3-2.5-2.3H338V216z"/>
	<path class="st0" d="M362.4,227.8c-6.4,0-11.2-4.7-11.2-11c0-6.3,4.8-11,11.2-11c5.5,0,9.8,3.6,10.6,9h-5.9
		c-0.7-2.2-2.5-3.6-4.7-3.6c-3,0-5.2,2.4-5.2,5.6c0,3.2,2.2,5.6,5.2,5.6c2.3,0,4.2-1.5,4.8-3.9h5.9C372.2,224,368,227.8,362.4,227.8
		L362.4,227.8z"/>
	<path class="st0" d="M389.5,222.2v5h-13.7v-21h13.4v5h-7.7v3.1h6.9v4.7h-6.9v3.1H389.5z"/>
</g>
</svg>
