<?xml version="1.0" encoding="utf-8"?>
<!-- Generator: Adobe Illustrator 19.0.0, SVG Export Plug-In . SVG Version: 6.00 Build 0)  -->
<svg version="1.1" id="Ebene_1" xmlns="http://www.w3.org/2000/svg" xmlns:xlink="http://www.w3.org/1999/xlink" x="0px" y="0px"
	 viewBox="0 0 512 93.8" style="enable-background:new 0 0 512 93.8;" xml:space="preserve">
<style type="text/css">
	.st0{fill:#262626;}
	.st1{fill:#FE0000;}
	.st2{fill:#FFCC00;}
</style>
<g id="XMLID_9_">
	<g id="XMLID_1_">
		<path id="XMLID_2_" class="st0" d="M62.2,35.8c0,17-11.1,29-27.3,29C19,64.8,7.3,53.4,7.3,37.6s11.5-27.3,27.5-27.3
			c13.6,0,24.7,8.5,26.9,20.6h-15c-1.9-4.4-6.5-7.2-11.8-7.2c-7.8,0-13,5.6-13,13.9c0,8.2,5.2,13.8,13,13.8c5.5,0,10.1-2.6,11.8-6.6
			H33.8v-9L62.2,35.8z"/>
		<path id="XMLID_7_" class="st0" d="M103.2,51.1v12.4H69.4V11.7h33.2V24h-19v7.6h17v11.7h-17v7.8H103.2z"/>
		<path id="XMLID_10_" class="st0" d="M130.9,47.7h-5.2v15.9h-14.3V11.7h22.5c11.2,0,19.3,7.5,19.3,18.4c0,6.4-3.1,11.6-8.2,14.6
			l10.3,18.9h-15.9L130.9,47.7z M125.7,35.6h6.5c4,0,6.3-2.4,6.3-5.6c0-3.2-2.3-5.6-6.3-5.6h-6.5V35.6z"/>
		<path id="XMLID_13_" class="st0" d="M212.8,63.5l-4-29.9l-13.8,30h-4.2l-13.7-29.9l-4,29.9h-14.5l7.8-51.9h14.3l12.2,28.2
			l12.3-28.2h14.3l7.8,51.9H212.8z"/>
		<path id="XMLID_15_" class="st0" d="M265.8,55.1h-18.4l-2.9,8.4h-15.3l20.4-51.9h14l20.8,51.9h-15.7L265.8,55.1z M256.6,27.9
			l-5.7,16.1h11.4L256.6,27.9z"/>
		<path id="XMLID_18_" class="st0" d="M335.7,11.7v51.9h-11.8l-20.6-28.1v28.1h-13.8V11.7h12.5l19.9,27.2V11.7H335.7z"/>
		<path id="XMLID_20_" class="st0" d="M345.8,11.7h14.5v51.9h-14.5V11.7z"/>
		<path id="XMLID_23_" class="st0" d="M408,50.2v13.3H367v-3L386.2,25h-18V11.7h38.9v3.2L388,50.2H408z"/>
		<path id="XMLID_25_" class="st0" d="M448.8,51.1v12.4H415V11.7h33.2V24h-19v7.6h17v11.7h-17v7.8H448.8z"/>
		<path id="XMLID_27_" class="st0" d="M504.7,37.6c0,15.1-11.1,26-26.8,26h-21V11.7h21C493.7,11.7,504.7,22.4,504.7,37.6z
			 M490.1,37.6c0-7.7-5.1-12.8-12.8-12.8h-6v25.7h6C485,50.4,490.1,45.2,490.1,37.6z"/>
	</g>
	<rect id="XMLID_5_" x="71.8" y="74.6" class="st0" width="126.8" height="8.7"/>
	<rect id="XMLID_4_" x="198.6" y="74.6" class="st1" width="126.8" height="8.7"/>
	<rect id="XMLID_3_" x="325.4" y="74.6" class="st2" width="126.8" height="8.7"/>
</g>
</svg>
