<?xml version="1.0" encoding="utf-8"?>
<!-- Generator: Adobe Illustrator 16.0.0, SVG Export Plug-In . SVG Version: 6.00 Build 0)  -->
<!DOCTYPE svg PUBLIC "-//W3C//DTD SVG 1.1//EN" "http://www.w3.org/Graphics/SVG/1.1/DTD/svg11.dtd">
<svg version="1.1" id="Layer_1" xmlns="http://www.w3.org/2000/svg" xmlns:xlink="http://www.w3.org/1999/xlink" x="0px" y="0px"
	 width="398.09px" height="117.176px" viewBox="0 0 398.09 117.176" enable-background="new 0 0 398.09 117.176"
	 xml:space="preserve">
<rect x="-1" y="23.16" fill="none" width="422.223" height="94.018"/>
<g enable-background="new    ">
	<path fill="#262626" d="M3.425,90.209V79.784l7.125-0.6v3.6c0,1.426,0.375,2.176,1.725,2.701c1.425,0.525,3.075,0.75,5.325,0.75
		c6.9,0,8.7-4.725,8.7-11.025v-4.125c-2.55,3-6.3,4.201-9.975,4.201c-10.95,0-14.699-9-14.699-17.55
		c0-13.574,8.175-19.949,19.499-19.949c3.6,0,9.45,0.9,13.875,2.775v27.824c0,2.625,0.075,5.475-0.15,8.174
		c-0.9,11.025-6.075,16.125-17.324,16.125C12.799,92.684,6.575,91.784,3.425,90.209z M26.299,45.211c-1.725-0.6-3.9-0.899-6-0.899
		c-6.225,0-9.45,4.949-9.45,12.524c0,5.1,0.825,11.85,7.8,11.85c4.2,0,7.649-2.775,7.649-7.352V45.211z"/>
	<path fill="#262626" d="M72.573,48.211c0,11.549-12.524,13.499-21.374,13.575c0.3,4.875,2.85,8.85,9.225,8.85
		c4.425,0,7.65-2.025,9.45-3.301l2.85,6.076c-1.2,1.049-6.15,4.199-13.2,4.199c-12.75,0-17.699-7.801-17.699-18.974
		c0-11.1,6.225-20.85,18.524-20.85C67.699,37.786,72.573,41.536,72.573,48.211z M59.824,44.161c-6,0-8.699,5.774-8.924,11.324
		c5.55-0.075,13.424-1.35,13.424-7.124C64.324,45.586,62.524,44.161,59.824,44.161z"/>
	<path fill="#262626" d="M82.474,47.461c0-1.65-0.45-2.175-1.875-2.25l-3.15-0.225v-6.075h12.674v5.625
		c1.725-3.75,5.7-6.75,10.649-6.75c2.475,0,4.725,0.45,7.2,1.65V50.61l-6.975,0.525v-3.45c0-0.899-0.15-1.574-0.75-1.875
		c-0.675-0.3-1.2-0.375-2.025-0.375c-4.05,0-6.825,3.226-6.825,7.575v17.4l6.525,0.299v5.926H77.824v-5.701l2.475-0.225
		c1.425-0.15,2.175-0.6,2.175-2.475V47.461z"/>
</g>
<g enable-background="new    ">
	<path fill="#BB2525" d="M112.773,38.911h12.674v4.875c2.625-3.75,6.45-6,11.4-6c4.8,0,8.25,1.95,9.975,6
		c2.625-3.75,6.45-6,11.399-6c7.05,0,11.25,4.2,11.25,13.05v19.575l4.275,0.225v6h-17.85v-5.701l2.475-0.225
		c1.35-0.15,2.1-0.6,2.175-2.398V52.786c0-4.575-0.375-8.1-5.175-8.1c-5.024,0-7.274,3.3-7.274,7.725v18l4.125,0.225v6h-17.699
		v-5.701l2.475-0.225c1.425-0.15,2.175-0.6,2.175-2.475V52.786c0-4.575-0.375-8.1-5.175-8.1c-5.25,0-7.275,3.675-7.275,7.574v18.15
		l4.05,0.225v6h-17.7v-5.701l2.475-0.225c1.425-0.15,2.175-0.6,2.175-2.475h0.075V47.536c0-1.65-0.45-2.25-1.875-2.325l-3.15-0.225
		V38.911z"/>
	<path fill="#BB2525" d="M211.097,68.311c0,1.648,0.45,2.1,1.875,2.174l2.399,0.15v6h-11.924v-4.35l-0.225-0.076
		c-2.326,3.375-6.15,5.4-10.275,5.4c-10.574,0-14.999-7.5-14.999-18.225c0-13.2,6.3-21.599,19.799-21.599
		c2.476,0,7.95,0.601,13.35,2.625V68.311z M202.396,45.286c-1.125-0.525-3.449-0.975-5.774-0.975c-7.125,0-9.525,6.674-9.525,14.774
		c0,6.225,1.5,12.149,7.8,12.149c4.649,0,7.499-3.299,7.499-6.525V45.286z"/>
	<path fill="#BB2525" d="M219.497,38.911h12.675v4.875c2.625-3.75,7.199-6,12.149-6c7.499,0,11.925,4.2,11.925,13.05v19.575
		l4.274,0.225v6h-17.85v-5.701l2.476-0.225c1.424-0.15,2.174-0.6,2.174-2.475V52.786c0-4.95-1.049-8.1-6.148-8.1
		c-4.951,0-7.726,3.675-7.726,7.574v18.15l4.274,0.225v6h-17.849v-5.701l2.476-0.225c1.424-0.15,2.174-0.6,2.174-2.475V47.461
		c0-1.65-0.524-2.25-1.875-2.325l-3.149-0.225V38.911z"/>
</g>
<g enable-background="new    ">
	<path fill="#B3AA19" d="M279.27,70.411l4.275,0.225v6h-17.85v-5.701l2.475-0.225c1.351-0.15,2.176-0.6,2.176-2.398v-20.85
		c0-1.65-0.45-2.175-1.875-2.175l-2.625-0.15v-6.225h13.424V70.411z M274.021,22.862c3.3,0,5.7,2.475,5.7,5.624
		c0,3.15-2.4,5.476-5.775,5.476c-3.449,0-5.699-2.325-5.699-5.476C268.246,25.337,270.496,22.862,274.021,22.862z"/>
	<path fill="#B3AA19" d="M288.42,76.635v-5.701l19.273-25.348h-9.449c-2.25,0-2.399,0.975-2.399,2.55v2.625l-7.05-0.524V38.911
		h29.849v5.1l-19.499,25.875h10.649c1.8,0,2.175-1.051,2.175-2.551v-3.148l7.05,0.523v11.926H288.42z"/>
	<path fill="#B3AA19" d="M355.168,48.211c0,11.549-12.525,13.499-21.375,13.575c0.301,4.875,2.851,8.85,9.225,8.85
		c4.426,0,7.65-2.025,9.45-3.301l2.851,6.076c-1.201,1.049-6.15,4.199-13.2,4.199c-12.749,0-17.699-7.801-17.699-18.974
		c0-11.1,6.225-20.85,18.524-20.85C350.293,37.786,355.168,41.536,355.168,48.211z M342.418,44.161c-6,0-8.699,5.774-8.924,11.324
		c5.549-0.075,13.424-1.35,13.424-7.124C346.918,45.586,345.118,44.161,342.418,44.161z"/>
	<path fill="#B3AA19" d="M384.643,38.687v-7.575c0-1.274-0.675-1.725-1.949-1.8l-3.226-0.225v-5.925h13.95V68.76
		c0.074,1.275,0.6,1.725,1.875,1.725l2.624,0.15v6h-12.149v-4.426l-0.225-0.074c-2.325,3.75-6.075,5.475-10.199,5.475
		c-11.7,0-15.15-9-15.15-18.375c0-12.824,6.6-21.449,18.3-21.449C381.117,37.786,382.918,38.161,384.643,38.687z M384.643,45.511
		c-1.35-0.6-3.375-1.199-5.699-1.199c-7.125,0-9.525,6.749-9.525,14.099c0,6.825,1.65,12.6,8.1,12.6c4.2,0,7.125-2.775,7.125-6.074
		V45.511z"/>
</g>
<circle fill="none" stroke="#262626" stroke-width="1.5" stroke-miterlimit="10" cx="288.382" cy="102.513" r="13.46"/>
<g>
	<g>
		<path fill="#262626" d="M285.59,95.067v2.096l-0.639,0.082c-0.688,0.057-0.931,0.59-0.709,1.262l4.385,11.561h0.154l4.045-12.398
			l-2.236-0.395v-2.207h6.129c-2.044-2-5.007-3.707-8.308-3.707c-3.299,0-6.264,1.707-8.31,3.707H285.59z"/>
		<path fill="#262626" d="M298.302,97.172l-0.895,0.072c-0.563,0.057-0.751,0.281-0.972,0.84l-5.831,15.223
			c5.117-1.021,8.976-5.533,8.976-10.949C299.58,100.485,299.115,98.723,298.302,97.172z"/>
		<path fill="#262626" d="M280.095,97.358l-1.629-0.078c-0.779,1.523-1.222,3.248-1.222,5.078c0,5.48,3.951,10.039,9.161,10.982
			L280.095,97.358z"/>
	</g>
</g>
<rect x="305.508" y="94.686" fill="none" width="96.751" height="21.223"/>
<g enable-background="new    ">
	<path fill="#262626" d="M315.971,102.504c0,3.604-3.909,4.213-6.671,4.236c0.094,1.521,0.89,2.762,2.879,2.762
		c1.381,0,2.388-0.633,2.949-1.029l0.89,1.895c-0.375,0.328-1.92,1.312-4.119,1.312c-3.979,0-5.524-2.436-5.524-5.922
		c0-3.465,1.942-6.508,5.781-6.508C314.449,99.25,315.971,100.42,315.971,102.504z M311.992,101.241
		c-1.873,0-2.716,1.801-2.786,3.533c1.732-0.023,4.19-0.422,4.19-2.223C313.396,101.684,312.834,101.241,311.992,101.241z"/>
	<path fill="#262626" d="M317.469,99.602h3.956v1.521c0.819-1.172,2.247-1.873,3.792-1.873c2.34,0,3.722,1.311,3.722,4.072v6.109
		l1.334,0.07v1.873h-5.571v-1.779l0.773-0.07c0.444-0.047,0.678-0.188,0.678-0.771v-4.822c0-1.545-0.327-2.529-1.919-2.529
		c-1.545,0-2.411,1.148-2.411,2.365v5.664l1.334,0.07v1.873h-5.57v-1.779l0.772-0.07c0.444-0.047,0.679-0.188,0.679-0.771v-6.484
		c0-0.516-0.164-0.703-0.585-0.727l-0.983-0.07V99.602z"/>
	<path fill="#262626" d="M339.214,99.532v-2.365c0-0.396-0.21-0.537-0.608-0.561l-1.007-0.07v-1.85h4.354v14.23
		c0.023,0.398,0.187,0.539,0.584,0.539l0.82,0.047v1.873h-3.793v-1.381l-0.07-0.023c-0.725,1.17-1.896,1.709-3.183,1.709
		c-3.651,0-4.729-2.811-4.729-5.736c0-4.002,2.06-6.693,5.712-6.693C338.113,99.25,338.676,99.368,339.214,99.532z M339.214,101.661
		c-0.421-0.188-1.054-0.375-1.778-0.375c-2.225,0-2.973,2.107-2.973,4.402c0,2.129,0.514,3.932,2.527,3.932
		c1.311,0,2.224-0.865,2.224-1.896V101.661z"/>
	<path fill="#262626" d="M348.951,109.432l1.334,0.07v1.873h-5.57v-1.779l0.772-0.07c0.421-0.047,0.679-0.188,0.679-0.75v-6.506
		c0-0.516-0.141-0.68-0.585-0.68l-0.819-0.047v-1.941h4.189V109.432z M347.312,94.592c1.03,0,1.779,0.771,1.779,1.756
		c0,0.982-0.749,1.709-1.803,1.709c-1.076,0-1.778-0.727-1.778-1.709C345.511,95.364,346.213,94.592,347.312,94.592z"/>
	<path fill="#262626" d="M359.438,99.532v-2.365c0-0.396-0.211-0.537-0.608-0.561l-1.007-0.07v-1.85h4.354v14.23
		c0.023,0.398,0.188,0.539,0.586,0.539l0.818,0.047v1.873h-3.791v-1.381l-0.07-0.023c-0.727,1.17-1.896,1.709-3.184,1.709
		c-3.651,0-4.729-2.811-4.729-5.736c0-4.002,2.061-6.693,5.711-6.693C358.338,99.25,358.899,99.368,359.438,99.532z
		 M359.438,101.661c-0.422-0.188-1.053-0.375-1.779-0.375c-2.223,0-2.973,2.107-2.973,4.402c0,2.129,0.516,3.932,2.528,3.932
		c1.312,0,2.224-0.865,2.224-1.896V101.661z"/>
	<path fill="#262626" d="M374.629,102.504c0,3.604-3.909,4.213-6.672,4.236c0.094,1.521,0.89,2.762,2.879,2.762
		c1.382,0,2.389-0.633,2.949-1.029l0.891,1.895c-0.375,0.328-1.92,1.312-4.12,1.312c-3.979,0-5.524-2.436-5.524-5.922
		c0-3.465,1.943-6.508,5.781-6.508C373.107,99.25,374.629,100.42,374.629,102.504z M370.649,101.241
		c-1.872,0-2.716,1.801-2.786,3.533c1.732-0.023,4.19-0.422,4.19-2.223C372.054,101.684,371.492,101.241,370.649,101.241z"/>
	<path fill="#262626" d="M377.719,102.27c0-0.516-0.141-0.68-0.586-0.703l-0.982-0.07v-1.895h3.955v1.754
		c0.539-1.17,1.779-2.105,3.324-2.105c0.772,0,1.475,0.141,2.247,0.516v3.486l-2.177,0.164v-1.076c0-0.281-0.047-0.492-0.234-0.586
		c-0.211-0.094-0.375-0.117-0.632-0.117c-1.265,0-2.13,1.008-2.13,2.365v5.43l2.036,0.094v1.85h-6.272v-1.779l0.771-0.07
		c0.445-0.047,0.68-0.188,0.68-0.771V102.27z"/>
	<path fill="#262626" d="M392.184,99.25c1.732,0,5.221,0.537,5.221,5.922c0,4.494-2.505,6.555-5.595,6.555
		c-3.137,0-5.196-2.014-5.196-6.25C386.613,100.608,389.773,99.25,392.184,99.25z M394.549,105.547c0-2.623-0.633-4.238-2.506-4.238
		c-1.849,0-2.598,1.592-2.598,3.84c0,2.176,0.305,4.518,2.552,4.518C393.822,109.667,394.549,107.981,394.549,105.547z"/>
</g>
<g>
	<path fill="#9B5C8F" d="M4.783,0h41.052c2.598,0,4.7,2.104,4.7,4.701v15.67c0,2.598-2.103,4.701-4.7,4.701H31.113l2.021,4.949
		l-8.887-4.949H4.805c-2.598,0-4.701-2.104-4.701-4.701V4.701C0.082,2.124,2.186,0,4.783,0z"/>
	<path fill="#FFFFFF" d="M2.619,4.268C2.908,3.876,3.34,3.67,3.918,3.628C4.97,3.545,5.566,4.041,5.711,5.111
		C6.35,9.422,7.052,13.07,7.794,16.061l4.515-8.599c0.412-0.783,0.928-1.196,1.547-1.237c0.906-0.062,1.463,0.516,1.689,1.732
		c0.516,2.742,1.175,5.072,1.959,7.051c0.536-5.236,1.443-9.01,2.721-11.34c0.309-0.578,0.764-0.866,1.36-0.907
		c0.476-0.042,0.907,0.103,1.299,0.412s0.599,0.701,0.64,1.177c0.021,0.37-0.041,0.68-0.207,0.988c-0.804,1.484-1.463,3.979-2,7.443
		c-0.516,3.361-0.701,5.979-0.576,7.854c0.041,0.517-0.043,0.97-0.248,1.361c-0.248,0.452-0.618,0.7-1.094,0.741
		c-0.535,0.043-1.092-0.207-1.627-0.762c-1.918-1.959-3.443-4.888-4.558-8.785c-1.34,2.64-2.33,4.619-2.969,5.938
		c-1.218,2.33-2.248,3.524-3.113,3.588c-0.558,0.041-1.03-0.435-1.442-1.423c-1.053-2.701-2.187-7.917-3.402-15.648
		C2.227,5.113,2.33,4.639,2.619,4.268z"/>
	<path fill="#FFFFFF" d="M46.947,7.505c-0.741-1.299-1.834-2.083-3.299-2.392c-0.392-0.082-0.763-0.125-1.113-0.125
		c-1.979,0-3.588,1.031-4.846,3.094c-1.072,1.752-1.607,3.689-1.607,5.812c0,1.588,0.33,2.949,0.99,4.084
		c0.742,1.299,1.834,2.082,3.299,2.392c0.392,0.083,0.763,0.124,1.113,0.124c2,0,3.608-1.031,4.846-3.094
		c1.072-1.772,1.609-3.711,1.609-5.834C47.938,9.959,47.607,8.619,46.947,7.505L46.947,7.505z M44.35,13.216
		c-0.289,1.36-0.804,2.371-1.566,3.052c-0.598,0.535-1.154,0.762-1.67,0.659c-0.496-0.103-0.907-0.536-1.217-1.34
		c-0.248-0.64-0.371-1.278-0.371-1.877c0-0.515,0.043-1.03,0.145-1.505c0.186-0.846,0.536-1.67,1.093-2.454
		c0.681-1.011,1.402-1.422,2.146-1.278c0.494,0.104,0.906,0.536,1.216,1.34c0.248,0.639,0.37,1.278,0.37,1.877
		C44.494,12.227,44.433,12.742,44.35,13.216L44.35,13.216z"/>
	<path fill="#FFFFFF" d="M34.021,7.505c-0.744-1.299-1.856-2.083-3.3-2.392c-0.392-0.082-0.763-0.125-1.112-0.125
		c-1.979,0-3.588,1.031-4.846,3.094c-1.072,1.752-1.607,3.689-1.607,5.812c0,1.588,0.33,2.949,0.988,4.084
		c0.743,1.299,1.836,2.082,3.299,2.392c0.393,0.083,0.764,0.124,1.114,0.124c2,0,3.608-1.031,4.845-3.094
		c1.072-1.772,1.608-3.711,1.608-5.834C35.01,9.959,34.68,8.619,34.021,7.505L34.021,7.505z M31.422,13.216
		c-0.288,1.36-0.805,2.371-1.566,3.052c-0.599,0.535-1.154,0.762-1.67,0.659c-0.496-0.103-0.908-0.536-1.217-1.34
		c-0.248-0.64-0.372-1.278-0.372-1.877c0-0.515,0.042-1.03,0.146-1.505c0.186-0.846,0.535-1.67,1.093-2.454
		c0.68-1.011,1.401-1.422,2.144-1.278c0.495,0.104,0.907,0.536,1.217,1.34c0.248,0.639,0.371,1.278,0.371,1.877
		C31.566,12.227,31.525,12.742,31.422,13.216L31.422,13.216z"/>
	<g>
		<g>
			<path d="M55.752,7.318c-1.383,1.361-2.062,3.094-2.062,5.197c0,2.248,0.68,4.082,2.043,5.463c1.36,1.381,3.133,2.082,5.34,2.082
				c0.639,0,1.36-0.103,2.145-0.33v-3.34c-0.723,0.207-1.34,0.309-1.876,0.309c-1.093,0-1.958-0.37-2.618-1.092
				c-0.66-0.742-0.99-1.731-0.99-2.99c0-1.174,0.33-2.145,0.969-2.887c0.66-0.763,1.465-1.133,2.455-1.133
				c0.639,0,1.319,0.102,2.062,0.309v-3.34c-0.681-0.187-1.442-0.269-2.248-0.269C58.865,5.277,57.133,5.959,55.752,7.318z
				 M70.061,5.277c-1.896,0-3.381,0.64-4.453,1.897c-1.072,1.257-1.588,3.03-1.588,5.298c0,2.454,0.535,4.33,1.588,5.629
				c1.051,1.299,2.598,1.959,4.618,1.959c1.958,0,3.464-0.66,4.515-1.959c1.052-1.3,1.589-3.134,1.589-5.484
				c0-2.352-0.537-4.165-1.609-5.443C73.628,5.917,72.082,5.277,70.061,5.277z M71.689,16c-0.371,0.576-0.928,0.865-1.629,0.865
				c-0.66,0-1.154-0.289-1.505-0.865c-0.351-0.577-0.515-1.732-0.515-3.484c0-2.701,0.681-4.041,2.062-4.041
				c1.443,0,2.186,1.36,2.186,4.103C72.267,14.268,72.061,15.422,71.689,16z M86.515,5.67l-0.743,3.154
				c-0.186,0.804-0.371,1.629-0.535,2.474l-0.412,2.187c-0.393-2.187-0.928-4.783-1.609-7.814h-4.783l-1.794,14.041h3.587
				l0.971-9.67l2.453,9.67h2.557l2.351-9.648l1.011,9.648h3.752L91.422,5.67H86.515z M103.689,5.67l-0.742,3.154
				c-0.186,0.804-0.371,1.629-0.535,2.474l-0.413,2.187c-0.392-2.187-0.929-4.783-1.608-7.814h-4.783l-1.793,14.041h3.588
				l0.969-9.67l2.453,9.67h2.558l2.33-9.648l1.01,9.648h3.752L108.578,5.67H103.689z M115.359,14.165h3.361v-2.907h-3.361V8.682
				h3.877v-2.99h-7.67v14.041h7.689v-2.99h-3.896V14.165z M129.936,11.938c0.394-0.639,0.6-1.299,0.6-1.979
				c0-1.32-0.517-2.371-1.546-3.135c-1.031-0.762-2.454-1.153-4.229-1.153h-4.412v14.041h3.793V13.32h0.062l3.071,6.392h4
				l-3.03-6.33C128.967,13.051,129.545,12.576,129.936,11.938z M124.122,11.712V8.371c0.907,0.021,1.547,0.166,1.938,0.453
				c0.394,0.289,0.577,0.742,0.577,1.402C126.638,11.195,125.792,11.691,124.122,11.712z M132.761,7.318
				c-1.381,1.361-2.061,3.094-2.061,5.197c0,2.248,0.68,4.082,2.041,5.463c1.359,1.381,3.134,2.082,5.34,2.082
				c0.639,0,1.359-0.103,2.144-0.33v-3.34c-0.721,0.207-1.34,0.309-1.876,0.309c-1.093,0-1.958-0.37-2.618-1.092
				c-0.66-0.742-0.988-1.731-0.988-2.99c0-1.174,0.328-2.145,0.969-2.887c0.66-0.763,1.464-1.133,2.454-1.133
				c0.639,0,1.318,0.102,2.062,0.309v-3.34c-0.68-0.187-1.44-0.269-2.247-0.269C135.895,5.277,134.143,5.959,132.761,7.318z
				 M145.07,16.699v-2.555h3.359v-2.908h-3.359V8.658h3.896V5.67h-7.67v14.041h7.691v-2.99h-3.917V16.699L145.07,16.699z"/>
		</g>
	</g>
</g>
</svg>
