<svg version="1.1" xmlns="http://www.w3.org/2000/svg" x="0px" y="0px" viewBox="0 0 1000 220" width="1000" height="220">
<polygon style="fill:#FFCC00;" points="0,0 1000,0 1000,220 0,220 0,0 0,0 "/>
<path d="M808.3036,155.5909h24.0484l-24.2852,24.5768h-24.0484L808.3036,155.5909z M775.8652,155.5909l-24.2836,24.5768H775.63
	l24.285-24.5768H775.8652z M837.931,155.5909l24.2853,24.5768h24.0497l-24.2852-24.5768H837.931z M870.3695,155.5909
	l24.2851,24.5768h24.0482l-24.2851-24.5768H870.3695z M833.3171,151.1679c-63.0339-0.0221-87.4006-54.823-84.1217-96.3531
	l18.5136-5.8886c-3.0123,23.6295,4.3076,40.6769,9.3507,48.4875c-6.0053-33.4303,19.2272-60.4939,50.8159-60.516
	c28.4107-0.0192,51.9113,20.7296,51.8003,50.4977c4.1654-11.3619,7.0667-28.6594,7.6677-40.7672l42.6596,10.6179
	C926.5927,107.3241,889.0341,151.1856,833.3171,151.1679z M862.1066,88.4463c0-18.857-15.285-34.1437-34.1434-34.1437
	c-18.8572,0-34.1437,15.2866-34.1437,34.1437c0,18.8592,15.2864,34.1451,34.1437,34.1451
	C846.8215,122.5915,862.1066,107.3056,862.1066,88.4463z M695.1487,87.7955l-13.3132,4.1988v11.5722h-7.988v11.1625h7.7831v22.3251
	c0,6.8961,1.3989,11.8793,4.1989,14.9516c2.7977,3.0723,7.5433,4.6083,14.2346,4.6083c1.3641,0,2.5768-0.0348,3.6356-0.1023
	c1.0568-0.0697,2.0298-0.1721,2.9186-0.3073v-11.0601c-0.5468,0.0697-1.1448,0.1208-1.7921,0.1536
	c-0.6492,0.0349-1.2474,0.0513-1.7922,0.0513c-1.2985,0-2.4413-0.1188-3.4306-0.3584c-0.9914-0.2376-1.8105-0.6985-2.4578-1.3826
	c-0.6492-0.682-1.1265-1.6038-1.4338-2.765c-0.3071-1.1592-0.4608-2.6277-0.4608-4.4036V114.729h11.3674v-11.1625h-11.4697V87.7955z
	 M264.54,87.7955l-13.3131,4.1988v11.5722h-7.9879v11.1625h7.7831v22.3251c0,6.8961,1.3988,11.8793,4.1987,14.9516
	c2.7978,3.0723,7.5435,4.6083,14.2348,4.6083c1.364,0,2.5767-0.0348,3.6355-0.1023c1.0568-0.0697,2.0297-0.1721,2.9186-0.3073
	v-11.0601c-0.5468,0.0697-1.1449,0.1208-1.7921,0.1536c-0.6493,0.0349-1.2473,0.0513-1.7921,0.0513
	c-1.2986,0-2.4414-0.1188-3.4307-0.3584c-0.9913-0.2376-1.8105-0.6985-2.4578-1.3826c-0.6493-0.682-1.1265-1.6038-1.4337-2.765
	c-0.3073-1.1592-0.4608-2.6277-0.4608-4.4036V114.729h11.3673v-11.1625H264.54V87.7955z M357.917,145.1443
	c-3.7563,0-6.6913-1.2289-8.8072-3.6868c-2.1178-2.4577-3.1746-5.8372-3.1746-10.1384v-3.4819
	c0-4.3012,1.0404-7.6806,3.1234-10.1385c2.081-2.4577,4.9668-3.6867,8.6535-3.6867c3.6171,0,6.8266,1.401,9.6265,4.1988
	l6.8613-8.7048c-2.253-2.3206-4.9503-4.0963-8.0903-5.3251c-3.1418-1.229-6.4517-1.8435-9.9337-1.8435
	c-3.619,0-6.9125,0.6145-9.8824,1.8435c-2.9699,1.2288-5.5137,2.937-7.6295,5.1204c-2.1178,2.1853-3.7379,4.8316-4.8644,7.9367
	c-1.1265,3.1071-1.6897,6.5378-1.6897,10.2921v4.0963c0,3.824,0.5796,7.2894,1.741,10.3944
	c1.1592,3.1071,2.7814,5.7534,4.8644,7.9367c2.0809,2.1854,4.6247,3.8752,7.6294,5.0692c3.0025,1.1941,6.3493,1.7921,10.036,1.7921
	c7.3734,0,13.518-2.3881,18.4336-7.1685l-6.759-8.7048C364.9135,143.7454,361.5341,145.1443,357.917,145.1443z M311.2187,124.6627
	l-6.0421-1.3314c-4.0287-0.8868-6.0421-2.6625-6.0421-5.3251c0-1.569,0.6985-2.7978,2.0994-3.6868
	c1.3989-0.8869,3.3611-1.3313,5.8885-1.3313c4.8459,0,9.182,1.4337,13.0059,4.3012l5.3253-8.8072
	c-5.5302-4.0963-12.0843-6.1446-19.6625-6.1446c-6.419,0-11.437,1.4338-15.0541,4.3013c-3.619,2.8674-5.4276,6.7937-5.4276,11.7769
	c0,4.0963,1.2105,7.5107,3.6355,10.2409c2.423,2.7323,5.991,4.6083,10.7017,5.6325l6.0421,1.3313
	c2.0481,0.4096,3.533,1.0241,4.4547,1.8434c0.9218,0.8192,1.3825,1.913,1.3825,3.277c0,3.6191-2.9022,5.4276-8.7047,5.4276
	c-5.2576,0-10.0708-1.6713-14.4396-5.018l-5.5301,8.7048c2.8674,2.3902,5.9049,4.1475,9.1144,5.2741
	c3.2075,1.1264,6.8941,1.6896,11.06,1.6896c7.0991,0,12.6291-1.45,16.5903-4.3523c3.9591-2.9002,5.9396-6.9802,5.9396-12.2379
	C325.5558,131.9008,320.7754,126.7108,311.2187,124.6627z M654.3899,124.6627l-6.1445-1.3314
	c-3.9611-0.8868-5.9396-2.6625-5.9396-5.3251c0-1.569,0.6984-2.7978,2.0993-3.6868c1.399-0.8869,3.361-1.3313,5.8885-1.3313
	c4.7784,0,9.1144,1.4337,13.006,4.3012l5.2228-8.8072c-5.53-4.0963-12.0515-6.1446-19.5601-6.1446
	c-6.419,0-11.4534,1.4338-15.1052,4.3013c-3.654,2.8674-5.4789,6.7937-5.4789,11.7769c0,4.0963,1.2289,7.5107,3.6868,10.2409
	c2.4576,2.7323,6.0421,4.6083,10.7529,5.6325l5.9396,1.3313c3.9592,0.8192,5.9398,2.5275,5.9398,5.1204
	c0,3.6191-2.9371,5.4276-8.8072,5.4276c-2.5951,0-5.0876-0.4097-7.4759-1.2289c-2.3901-0.8192-4.678-2.0809-6.8613-3.7891
	l-5.6324,8.7048c2.8673,2.3902,5.9212,4.1475,9.1655,5.2741c3.2423,1.1264,6.9127,1.6896,11.009,1.6896
	c7.1686,0,12.7151-1.45,16.6414-4.3523c3.9244-2.9002,5.8885-6.9802,5.8885-12.2379
	C668.6248,131.9685,663.8791,126.7804,654.3899,124.6627z M220.7647,139.4095c-0.9565,1.5709-2.2203,2.8859-3.7892,3.9428
	c-1.5709,1.0589-3.4491,1.5873-5.6324,1.5873c-2.7999,0-4.8644-0.8521-6.1957-2.5602c-1.3313-1.7062-1.9971-4.1639-1.9971-7.3734
	v-31.4394H189.53v32.4635c0,6.6239,1.3826,11.7095,4.1476,15.259c2.765,3.5515,6.7077,5.3251,11.8282,5.3251
	c3.8218,0,7.0662-0.9401,9.7288-2.8162c2.6626-1.8761,4.7784-4.3523,6.3493-7.4246v9.2168h12.8011v-52.0235h-13.6203V139.4095z
	 M174.83,109.0965c3.9243,4.5059,5.8885,10.7201,5.8885,18.6384v6.042h-32.7707c0.3399,4.0288,1.6037,7.0334,3.7891,9.0119
	c2.1833,1.9807,5.2228,2.9699,9.1143,2.9699c2.5254,0,4.7948-0.3583,6.8102-1.0752c2.0133-0.7169,4.0104-1.7921,5.9909-3.226
	l5.7349,8.6024c-2.595,2.1178-5.5137,3.7727-8.7559,4.9667c-3.2443,1.1941-6.845,1.7921-10.8041,1.7921
	c-3.8915,0-7.3919-0.5816-10.4969-1.7409c-3.1071-1.1592-5.7697-2.8163-7.9879-4.9668c-2.2203-2.1505-3.9099-4.7947-5.0692-7.9367
	c-1.1613-3.1398-1.741-6.6565-1.741-10.548v-4.0963c0-3.8915,0.5448-7.3898,1.6385-10.4969
	c1.0917-3.105,2.6626-5.7513,4.7108-7.9367c2.0481-2.1834,4.5224-3.8567,7.4246-5.0181c2.9002-1.1592,6.1608-1.741,9.78-1.741
	C165.3223,102.3375,170.9037,104.5905,174.83,109.0965z M167.6102,125.0722c-0.2048-3.6867-1.0938-6.5705-2.6627-8.6535
	c-1.5709-2.081-3.9611-3.1234-7.1686-3.1234c-3.2094,0-5.616,1.0425-7.2198,3.1234c-1.6057,2.083-2.4762,4.9668-2.6114,8.6535
	H167.6102z M475.6357,109.0965c3.9243,4.5059,5.8886,10.7201,5.8886,18.6384v6.042h-32.7708
	c0.3399,4.0288,1.6037,7.0334,3.7891,9.0119c2.1833,1.9807,5.2228,2.9699,9.1144,2.9699c2.5253,0,4.7947-0.3583,6.8101-1.0752
	c2.0133-0.7169,4.0103-1.7921,5.9909-3.226l5.7349,8.6024c-2.5951,2.1178-5.5137,3.7727-8.756,4.9667
	c-3.2443,1.1941-6.8449,1.7921-10.804,1.7921c-3.8915,0-7.3918-0.5816-10.4969-1.7409c-3.1071-1.1592-5.7697-2.8163-7.9879-4.9668
	c-2.2202-2.1505-3.91-4.7947-5.0692-7.9367c-1.1614-3.1398-1.741-6.6565-1.741-10.548v-4.0963
	c0-3.8915,0.5447-7.3898,1.6387-10.4969c1.0916-3.105,2.6625-5.7513,4.7107-7.9367c2.0482-2.1834,4.5224-3.8567,7.4246-5.0181
	c2.9001-1.1592,6.1609-1.741,9.78-1.741C466.1281,102.3375,471.7093,104.5905,475.6357,109.0965z M468.4158,125.0722
	c-0.2047-3.6867-1.0936-6.5705-2.6625-8.6535c-1.571-2.081-3.9613-3.1234-7.1686-3.1234c-3.2096,0-5.5997,1.0425-7.1686,3.1234
	c-1.571,2.083-2.4579,4.9668-2.6626,8.6535H468.4158z M410.1453,102.5423c-3.6867,0-6.7937,0.8542-9.3192,2.5603
	c-2.5273,1.7081-4.6084,3.9939-6.2469,6.8614v-28.06H380.959v71.686h13.6203v-35.7406c0.9544-1.5689,2.253-2.9187,3.8915-4.0451
	c1.6386-1.1265,3.617-1.6898,5.9397-1.6898c2.8675,0,4.9667,0.8705,6.2982,2.6115c1.3312,1.7409,1.9969,4.2172,1.9969,7.4246V155.59
	h13.6204v-32.4635c0-6.6894-1.401-11.7933-4.1988-15.3101C419.3274,104.3018,415.3334,102.5423,410.1453,102.5423z
	 M619.1102,117.0332c1.1265,3.1071,1.6898,6.6054,1.6898,10.4969v4.0963c0,3.8915-0.5633,7.3919-1.6898,10.4969
	c-1.1265,3.1071-2.7487,5.7533-4.8644,7.9367c-2.1178,2.1853-4.7108,3.8588-7.783,5.018
	c-3.0723,1.1592-6.5215,1.7409-10.3434,1.7409c-3.824,0-7.2709-0.5816-10.3432-1.7409s-5.6672-2.8327-7.783-5.018
	c-2.1178-2.1834-3.7379-4.8296-4.8644-7.9367c-1.1265-3.105-1.6898-6.6054-1.6898-10.4969v-4.0963
	c0-3.8915,0.5633-7.3898,1.6898-10.4969c1.1265-3.105,2.7466-5.7513,4.8644-7.9367c2.1158-2.1834,4.7108-3.8567,7.783-5.0181
	c3.0723-1.1592,6.5192-1.741,10.3432-1.741c3.822,0,7.2711,0.5817,10.3434,1.741c3.0723,1.1614,5.6652,2.8347,7.783,5.0181
	C616.3616,111.2819,617.9838,113.9282,619.1102,117.0332z M607.1796,127.8372c0-4.7107-0.9729-8.2254-2.9186-10.548
	c-1.9458-2.3206-4.6597-3.4819-8.1417-3.4819c-3.4818,0-6.1956,1.1614-8.1414,3.4819c-1.9458,2.3226-2.9186,5.8373-2.9186,10.548
	v3.4819c0,4.7107,0.9728,8.2276,2.9186,10.548c1.9458,2.3227,4.6597,3.4819,8.1414,3.4819c3.4819,0,6.1959-1.1592,8.1417-3.4819
	c1.9457-2.3205,2.9186-5.8373,2.9186-10.548V127.8372z M565.0897,100.3918c1.2289,2.5951,1.8433,5.5301,1.8433,8.8072v2.0481
	c0,3.2771-0.598,6.2306-1.7921,8.8584c-1.1962,2.6298-2.9186,4.848-5.1716,6.6565c-2.2531,1.8105-4.9853,3.2095-8.1927,4.1988
	c-3.2095,0.9913-6.8287,1.4849-10.8553,1.4849h-11.265V155.59h-14.2348V88.0003h25.4998c3.959,0,7.5434,0.4956,10.7529,1.4849
	c3.2075,0.9914,5.9396,2.4067,8.1927,4.25C562.1198,95.5786,563.8607,97.7988,565.0897,100.3918z M552.6982,109.5061
	c0-3.2074-1.0077-5.6489-3.0211-7.3222c-2.0154-1.6713-4.934-2.5089-8.7559-2.5089h-11.265v21.0961h11.265
	c3.8218,0,6.7405-0.8356,8.7559-2.5089c2.0134-1.6713,3.0211-4.1127,3.0211-7.3222V109.5061z M118.3831,96.0394
	c5.3929,5.3601,8.0904,13.0243,8.0904,22.9907v5.5301c0,9.9684-2.6975,17.6327-8.0904,22.9907
	c-5.3949,5.36-13.1083,8.039-23.1443,8.039h-24.578V88.0003h24.578C105.2749,88.0003,112.9882,90.6814,118.3831,96.0394z
	 M112.2387,119.6446c0-12.971-5.6673-19.4576-16.9999-19.4576H84.8955v43.2165h10.3433c11.3326,0,16.9999-6.4846,16.9999-19.4576
	V119.6446z"/>
</svg>
