<svg xmlns="http://www.w3.org/2000/svg" xmlns:xlink="http://www.w3.org/1999/xlink" version="1.1" x="0px" y="0px" width="448.931px" height="206px" viewBox="79.5 293.5 448.931 206" enable-background="new 79.5 293.5 448.931 206" xml:space="preserve">
<g>
	<path fill="#414042" d="M372.345,441.876c-8.398,2.223-19.338,3.323-28.849,3.323c-24.413,0-40.579-12.992-40.579-36.771   c0-22.505,15.057-37.083,37.094-37.083c4.912,0,10.14,0.625,13.313,2.216v-32.668h19.021V441.876z M353.324,390.36   c-3.013-1.426-6.974-2.219-11.737-2.219c-11.563,0-19.333,7.136-19.333,19.656c0,13.476,8.399,21.087,21.874,21.087   c2.379,0,6.023-0.163,9.196-0.793V390.36z M528.431,441.876c-8.406,2.223-19.343,3.323-28.854,3.323   c-24.409,0-40.584-12.992-40.584-36.771c0-22.505,15.064-37.083,37.101-37.083c4.913,0,10.144,0.625,13.315,2.216v-32.668h19.021   V441.876z M509.409,390.36c-3.016-1.426-6.979-2.219-11.733-2.219c-11.57,0-19.336,7.136-19.336,19.656   c0,13.476,8.399,21.087,21.874,21.087c2.375,0,6.023-0.163,9.195-0.793V390.36z M402.258,390.204   c3.168-1.271,7.6-1.742,11.404-1.742c11.733,0,19.818,6.814,19.818,19.015c0,14.393-8.955,20.902-20.929,21.07v16.642   c0.314,0,0.634,0.011,0.957,0.011c24.565,0,39.312-13.785,39.312-38.354c0-22.35-15.691-35.501-38.836-35.501   c-11.727,0-23.304,2.695-30.91,5.862v94.953h19.184V390.204z"/>
    <linearGradient id="SVGID_1_" gradientUnits="userSpaceOnUse" x1="366.751" y1="-291.9131" x2="736.271" y2="18.1508" gradientTransform="matrix(0.229 0 0 -0.229 0.3856 397.0497)">
		<stop offset="0" style="stop-color:#A90034"/>
        <stop offset="0.2717" style="stop-color:#BB0033"/>
        <stop offset="0.7226" style="stop-color:#D30032"/>
        <stop offset="1" style="stop-color:#DC0032"/>
	</linearGradient>
    <path fill="url(#SVGID_1_)" d="M199.681,385.541c-0.787,0.459-2.021,0.423-2.789-0.052l-4.522-2.688   c-0.368-0.228-0.706-0.593-0.961-1.032c-0.015-0.025-0.03-0.051-0.045-0.077c-0.289-0.471-0.453-0.968-0.47-1.424l-0.115-5.272   c-0.034-0.888,0.552-1.971,1.342-2.432l54.362-31.67l-76.285-41.577c-0.84-0.466-1.948-0.691-3.057-0.693   c-1.11-0.002-2.22,0.229-3.061,0.693l-76.286,41.578l85.46,49.75c0.792,0.433,1.394,1.461,1.394,2.389v72.576   c0,0.911-0.652,1.958-1.45,2.384l-4.599,2.554c-0.382,0.203-0.868,0.312-1.376,0.312c-0.029,0-0.059,0-0.088,0   c-0.552,0.013-1.065-0.096-1.467-0.312l-4.614-2.555c-0.784-0.417-1.425-1.469-1.425-2.383l0.001-64.698   c-0.041-0.474-0.388-1.052-0.768-1.27l-75.292-43.829v85.848c-0.001,1.921,1.354,4.291,3.014,5.262l77.543,45.732   c0.829,0.486,1.921,0.728,3.012,0.724c1.092-0.003,2.184-0.231,3.011-0.723l77.555-45.733c1.654-0.981,3.005-3.338,3.003-5.262   v-85.847L199.681,385.541z"/>
</g>
</svg>