<svg width="110" height="50" viewBox="0 0 110 50" xmlns="http://www.w3.org/2000/svg" aria-hidden="true" focusable="false">
    <style>.logo_dot__V7wKa {fill: #ffd100;} .logo_letters__YeY_w {fill: #061ab1;}</style>
    <path d="M95.7847 39.8692C98.5185 39.8692 100.735 37.6602 100.735 34.9353C100.735 32.2104 98.5185 30.0014 95.7847 30.0014C93.0508 30.0014 90.8346 32.2104 90.8346 34.9353C90.8346 37.6602 93.0508 39.8692 95.7847 39.8692Z" class="logo_dot__V7wKa"></path><path d="M25.238 23.9744V30.4299H30.6265C29.8392 31.6613 28.064 32.3174 26.8606 32.3174C22.8045 32.3174 20.7765 30.0131 20.7765 25.3631C20.7765 20.2283 23.4532 17.6008 28.7671 17.6008C30.8762 17.6008 33.635 18.126 36.5955 19.0565V11.3345C35.7431 10.9708 34.4458 10.688 32.7826 10.4041C31.0789 10.1212 29.5778 10 28.2795 10C23.0061 10 18.8284 11.4153 15.7058 14.2449C12.5821 17.0755 11 20.8758 11 25.6874C11 30.0939 12.2173 33.571 14.6507 36.1188C17.0842 38.7059 20.37 40 24.5072 40C28.6614 40 32.4786 37.851 33.7086 35.1225L33.682 39.5141H39.6914V23.9744H25.238Z" class="logo_letters__YeY_w"></path><path d="M42.6914 39.514V10.4849H52.0209V31.9537H62.2017V39.514H42.6914Z" class="logo_letters__YeY_w"></path><path d="M65.606 38.7867V30.8627C66.9854 31.3072 68.6081 31.6709 70.4334 31.9952C72.2588 32.3184 73.8409 32.4801 75.1798 32.4801C77.4511 32.4801 78.6278 31.9144 78.6278 30.9031C78.6278 30.2566 78.2629 29.9323 76.5997 29.5686L73.3544 28.8413C67.7973 27.5876 65.2017 24.7985 65.2017 20.0677C65.2017 16.9542 66.2973 14.4884 68.447 12.669C70.5945 10.889 73.5966 10 77.3689 10C79.9645 10 83.9406 10.5253 86.3741 11.1325V18.6928C85.1163 18.3695 83.6163 18.0463 81.791 17.7624C79.9656 17.4795 78.5456 17.3583 77.4916 17.3583C75.5041 17.3583 74.3679 17.924 74.3679 18.9352C74.3679 19.5413 74.8949 19.9465 75.9906 20.2293L79.7629 21.1183C85.2795 22.4124 87.8346 25.2419 87.8346 30.0535C87.8346 33.1266 86.6984 35.552 84.4676 37.331C82.2369 39.11 79.1537 39.9989 75.2193 39.9989C71.4875 39.9989 67.7152 39.4736 65.606 38.7867Z" class="logo_letters__YeY_w"></path>
</svg>