  <svg
  width="160.85127mm"
  height="46.080624mm"
  viewBox="0 0 160.85164 46.080727"
  version="1.1"
  xmlns="http://www.w3.org/2000/svg">
    <g
      transform="translate(-39.7032,-56.561784)"
      style="fill:#533582"
      aria-label="shiptastic">
        <path
          d="m 54.81179,94.809717 q -2.293057,0 -4.409725,-0.493889 -2.081391,-0.529167 -3.52778,-1.516945 l 1.728612,-3.986392 q 0.881945,0.529167 1.905001,0.952501 1.058334,0.388055 2.151946,0.599722 1.12889,0.211667 2.116668,0.211667 1.375834,0 2.010835,-0.423334 0.635,-0.423333 0.635,-1.058334 0,-0.493889 -0.3175,-0.740833 -0.3175,-0.246945 -1.12889,-0.388056 l -3.139724,-0.529167 q -2.187224,-0.352778 -3.386669,-1.552224 -1.164167,-1.234723 -1.164167,-3.033891 0,-1.622778 0.9525,-3.03389 0.987779,-1.411113 2.89278,-2.25778 1.940279,-0.881945 4.833059,-0.881945 1.058334,0 2.222501,0.211667 1.199446,0.176389 2.328335,0.564445 1.12889,0.388056 2.046113,1.023056 l -1.693335,3.915836 q -1.199445,-0.776112 -2.575279,-1.12889 -1.375835,-0.388055 -2.681113,-0.388055 -1.44639,0 -2.116668,0.458611 -0.670279,0.423334 -0.670279,1.12889 0,0.388055 0.246945,0.670278 0.282222,0.282222 0.917223,0.388056 l 3.139724,0.493889 q 2.434169,0.423334 3.633614,1.622779 1.199445,1.199445 1.199445,2.998613 0,2.010835 -1.023056,3.386669 -0.987779,1.375834 -2.822224,2.08139 -1.834446,0.705556 -4.303892,0.705556 z"
        />
        <path
          d="m 63.345502,94.421661 3.951103,-24.870777 h 6.27943 l -1.69333,10.512754 h -0.388054 q 0.91722,-1.658052 2.469439,-2.504717 1.552218,-0.881942 3.598325,-0.881942 1.869718,0 3.174993,0.776109 1.340552,0.77611 1.869718,2.434162 0.564443,1.658051 0.176388,4.268601 l -1.622774,10.26581 h -6.27943 l 1.587496,-10.159977 q 0.141111,-0.91722 0,-1.516941 -0.105833,-0.634998 -0.564443,-0.952498 -0.423332,-0.317499 -1.234719,-0.317499 -0.952498,0 -1.728608,0.45861 -0.740831,0.423332 -1.199441,1.269997 -0.45861,0.811387 -0.670277,1.975551 l -1.446385,9.242757 z m 23.103399,-20.355232 0.91722,-5.679709 h 6.59693 l -0.91722,5.679709 z m -3.06916,20.355232 2.751661,-17.356627 h 6.27943 l -2.75166,17.356627 z m 7.545901,6.349989 3.774714,-23.706616 h 6.103044 l -0.42333,2.75166 h -0.17639 q 0.635,-0.987775 1.51694,-1.693329 0.91722,-0.740832 1.97555,-1.093609 1.09361,-0.352777 2.29305,-0.352777 1.94027,0 3.38666,0.91722 1.44638,0.91722 2.22249,2.61055 0.81139,1.693329 0.81139,4.021658 0,3.033882 -1.09361,5.432765 -1.09361,2.398884 -3.06916,3.774714 -1.97555,1.37583 -4.62138,1.37583 -1.86971,0 -3.28082,-0.811387 -1.41111,-0.846665 -2.010831,-2.434161 l 0.317499,0.03528 -1.446385,9.172202 z M 102.28506,90.188338 q 1.19944,0 2.04611,-0.705554 0.84666,-0.740832 1.30527,-2.010829 0.45861,-1.269997 0.45861,-2.892772 0,-1.587496 -0.74083,-2.434161 -0.70555,-0.846664 -1.97555,-0.846664 -1.19944,0 -2.04611,0.740831 -0.84666,0.705554 -1.340549,1.975551 -0.45861,1.269997 -0.45861,2.892772 0,1.587496 0.740829,2.434161 0.74083,0.846665 2.01083,0.846665 z m 19.50511,4.621378 q -2.68111,0 -4.37444,-0.952498 -1.69333,-0.952498 -2.36361,-2.645827 -0.63499,-1.69333 -0.31749,-3.880547 l 0.91722,-5.644432 h -3.24555 l 0.74083,-4.621378 h 3.24555 l 0.77611,-5.044711 h 6.27943 l -0.77611,5.044711 h 5.00943 l -0.74083,4.621378 h -5.00943 l -0.88195,5.397488 q -0.21166,1.446386 0.45861,2.081384 0.67028,0.599721 1.905,0.599721 0.42333,0 0.88194,-0.07055 0.45861,-0.105833 0.98778,-0.246944 l 0.17639,4.656656 q -0.74084,0.352777 -1.72861,0.529166 -0.98778,0.176388 -1.94027,0.176388 z m 10.2623,0 q -1.65805,0 -3.03388,-0.776109 -1.34055,-0.77611 -2.15194,-2.010829 -0.77611,-1.269997 -0.77611,-2.716383 0,-1.83444 1.05833,-2.998604 1.05833,-1.164164 3.21027,-1.69333 2.15194,-0.564443 5.43277,-0.564443 h 2.78693 l -0.49388,2.963327 h -2.29305 q -1.30528,0 -2.15194,0.176388 -0.81139,0.176389 -1.19944,0.599721 -0.35278,0.423332 -0.35278,1.093609 0,0.846664 0.59972,1.340552 0.59972,0.493888 1.55222,0.493888 0.9525,0 1.62277,-0.352777 0.70556,-0.352777 1.12889,-1.023053 0.45861,-0.670276 0.59972,-1.552219 l 0.635,-4.056935 q 0.21166,-1.164164 -0.49389,-1.834441 -0.70555,-0.670276 -2.36361,-0.670276 -1.51694,0 -3.03388,0.423333 -1.51694,0.423332 -3.03388,1.269997 l -1.16416,-4.162769 q 0.91722,-0.634998 2.22249,-1.093608 1.34055,-0.493888 2.85749,-0.740832 1.51695,-0.246944 3.03389,-0.246944 3.21027,0 5.00943,1.164164 1.79916,1.164164 2.39888,3.104438 0.635,1.940273 0.24695,4.268601 l -1.44639,9.207479 h -5.82082 l 0.52917,-3.386659 h 0.28222 q -0.52917,1.305275 -1.37583,2.15194 -0.81139,0.846665 -1.83444,1.234719 -1.02306,0.388055 -2.18722,0.388055 z m 20.2459,0 q -2.29305,0 -4.40971,-0.493888 -2.08139,-0.529165 -3.52777,-1.516941 l 1.7286,-3.98638 q 0.88195,0.529166 1.905,0.952498 1.05833,0.388055 2.15194,0.599721 1.12889,0.211666 2.11666,0.211666 1.37583,0 2.01083,-0.423332 0.635,-0.423333 0.635,-1.058331 0,-0.493888 -0.3175,-0.740832 -0.3175,-0.246944 -1.12889,-0.388054 l -3.13971,-0.529166 q -2.18722,-0.352777 -3.38666,-1.552219 -1.16417,-1.234719 -1.16417,-3.033882 0,-1.622774 0.9525,-3.033882 0.98778,-1.411108 2.89277,-2.257773 1.94028,-0.881942 4.83305,-0.881942 1.05833,0 2.22249,0.211666 1.19945,0.176389 2.32833,0.564443 1.12889,0.388055 2.04611,1.023054 l -1.69333,3.915824 q -1.19944,-0.776109 -2.57527,-1.128886 -1.37583,-0.388055 -2.68111,-0.388055 -1.44638,0 -2.11666,0.45861 -0.67028,0.423333 -0.67028,1.128887 0,0.388054 0.24695,0.670276 0.28222,0.282221 0.91722,0.388055 l 3.13971,0.493887 q 2.43416,0.423333 3.63361,1.622774 1.19944,1.199442 1.19944,2.998605 0,2.010829 -1.02306,3.386659 -0.98777,1.37583 -2.82221,2.081384 -1.83444,0.705554 -4.30388,0.705554 z m 17.84703,0 q -2.68111,0 -4.37444,-0.952498 -1.69333,-0.952498 -2.3636,-2.645827 -0.635,-1.69333 -0.3175,-3.880547 l 0.91722,-5.644432 h -3.24555 l 0.74083,-4.621378 h 3.24555 l 0.77611,-5.044711 h 6.27943 l -0.77611,5.044711 h 5.00943 l -0.74083,4.621378 h -5.00943 l -0.88194,5.397488 q -0.21167,1.446386 0.45861,2.081384 0.67027,0.599721 1.90499,0.599721 0.42333,0 0.88194,-0.07055 0.45861,-0.105833 0.98778,-0.246944 l 0.17639,4.656656 q -0.74083,0.352777 -1.72861,0.529166 -0.98777,0.176388 -1.94027,0.176388 z m 7.26369,-20.743287 0.91722,-5.679709 h 6.59693 l -0.91722,5.679709 z m -3.06916,20.355232 2.75166,-17.356627 h 6.27943 l -2.75166,17.356627 z m 18.16449,0.388055 q -2.9986,0 -5.00943,-0.987775 -2.01083,-1.023054 -3.03389,-2.857494 -1.02305,-1.83444 -1.02305,-4.268602 0,-1.975551 0.635,-3.774713 0.67028,-1.799163 1.97555,-3.210271 1.30528,-1.411108 3.28083,-2.222495 1.97555,-0.811387 4.5861,-0.811387 1.76388,0 3.38666,0.45861 1.65805,0.423332 2.75166,1.23472 l -1.79917,4.303879 q -0.63499,-0.599721 -1.7286,-0.91722 -1.05833,-0.352777 -2.08139,-0.352777 -1.26999,0 -2.15194,0.45861 -0.88194,0.423332 -1.4111,1.199441 -0.52917,0.740832 -0.77611,1.658052 -0.24695,0.91722 -0.24695,1.869718 0,1.587497 0.84667,2.539995 0.84666,0.952497 2.82221,0.952497 0.84667,0 1.83444,-0.317499 1.02306,-0.352777 1.83444,-0.91722 l 1.27,4.339157 q -0.67028,0.529165 -1.69333,0.91722 -0.98777,0.352777 -2.11666,0.529166 -1.12889,0.176388 -2.15194,0.176388 z"
        />
        <path
          d="m 93.821534,83.351318 -2.635499,16.495477 -48.484952,-0.05129 5.37435,-36.824544 18.165331,-4e-5 4.554972,3.927449 5.381795,-3.927449 20.229163,0.206705 0.65038,-3.174787 -55.080111,-3.441055 -2.273763,46.080726 57.280763,-0.0518 1.149745,-8.461258"
        />
    </g>
</svg>
